<svg width="58" height="64" viewBox="0 0 58 64" fill="none" xmlns="http://www.w3.org/2000/svg">
<g clip-path="url(#clip0_0_407)">
<path d="M4.98266 49.8277L29.3094 62.1589L52.7146 49.8277V1.59814H4.98266V49.8277Z" fill="white"/>
<path d="M53.209 1.78027L4.49438 50.6845L29.7427 63.1426L53.209 51.1765V1.78027Z" fill="#F2F3F2"/>
<path d="M3.38305 17.6726V50.8672L4.24349 51.2984L28.5702 63.6297L29.3084 64L30.0468 63.6297L53.513 51.2984L54.3735 50.8672V0H3.38305V17.6726ZM4.98684 49.9491V1.59785H52.7799V49.9491L29.3136 62.2804L4.98684 49.9491Z" fill="#DCDEDC"/>
<path d="M28.8815 2.39423C29.1311 2.38409 29.3754 2.40437 29.6199 2.4551L28.8815 3.86526C27.7615 3.79932 26.7941 4.6515 26.728 5.76746C26.6617 6.88341 27.5171 7.8472 28.6372 7.91313H28.8815C29.3754 7.91313 29.8541 7.73559 30.2359 7.4211L31.0352 8.77039C30.4039 9.2117 29.6504 9.44503 28.8815 9.44503C26.9264 9.53127 25.2718 8.01966 25.1853 6.07181C25.0987 4.12396 26.616 2.47539 28.571 2.38916H28.8765L28.8815 2.39423ZM31.4069 5.40223L32.3284 6.93414L31.4069 8.40517L30.5464 6.93414H28.7594L29.681 5.40223H31.4069ZM29.9304 4.84933C29.9304 4.61092 29.9915 4.37759 30.1137 4.17468C30.2665 3.98192 30.4548 3.81454 30.6687 3.68265L30.7909 3.62178C31.0352 3.50004 31.0963 3.43917 31.0963 3.31743C31.0963 3.19568 30.9131 3.07395 30.7909 3.07395C30.5464 3.07395 30.3276 3.21598 30.2359 3.44424L29.9304 3.13989C30.0118 3.00293 30.1188 2.87612 30.2359 2.7696C30.4039 2.67322 30.5974 2.62757 30.7909 2.64785C30.9894 2.64785 31.188 2.70872 31.3458 2.83047C31.4884 2.95728 31.5749 3.13482 31.5902 3.3225C31.5852 3.64715 31.356 3.92613 31.0352 3.99715L30.852 4.11888C30.6687 4.24063 30.5464 4.3015 30.4803 4.48918H31.5902V4.92035L29.9253 4.85947L29.9304 4.84933ZM28.8815 12.519L34.7316 9.20662V0H22.9705V9.14068L28.8815 12.5139V12.519ZM55.5504 34.2395H2.2128L0.242424 38.5359L2.2128 42.8324H55.5453L57.4545 38.5359L55.5453 34.2395H55.5504Z" fill="#FF492C"/>
<path d="M11.7545 31.48C11.7188 31.48 11.6883 31.4699 11.6629 31.4445C11.6374 31.4191 11.6272 31.3836 11.6272 31.3482V23.8864C11.6272 23.8509 11.6425 23.8155 11.6629 23.79C11.6883 23.7647 11.7188 23.7546 11.7545 23.7546H13.0528C13.0884 23.7546 13.119 23.7647 13.1445 23.79C13.1699 23.8155 13.1852 23.8509 13.1852 23.8864V30.0902C13.1852 30.1156 13.2004 30.1409 13.2259 30.1459C13.2259 30.1459 13.2361 30.1459 13.2412 30.1459H16.8612C16.9325 30.1459 16.9936 30.1916 16.9986 30.2627C16.9986 30.2677 16.9986 30.2728 16.9986 30.2829V31.3482C16.9986 31.4191 16.9529 31.48 16.8816 31.4851C16.8765 31.4851 16.8714 31.4851 16.8612 31.4851H11.7494L11.7545 31.48ZM22.9098 28.0561C22.9556 28.3655 22.9709 28.68 22.9505 28.9945C22.9607 29.0604 22.9098 29.1213 22.8436 29.1314C22.8334 29.1314 22.8232 29.1314 22.813 29.1314H19.3865C19.3407 29.1314 19.3254 29.1518 19.3458 29.1873C19.3661 29.3394 19.4069 29.4865 19.4629 29.6286C19.6869 30.0547 20.1553 30.2982 20.639 30.2423C21.0871 30.2525 21.5045 30.0395 21.7592 29.6743C21.7795 29.6235 21.8355 29.5931 21.8915 29.6134C21.9119 29.6184 21.9271 29.6336 21.9424 29.6489L22.7367 30.4351C22.7673 30.4605 22.7876 30.496 22.7927 30.5315C22.7876 30.567 22.7723 30.5974 22.7519 30.6228C22.4974 30.9271 22.1766 31.1706 21.8101 31.3228C21.4129 31.4902 20.9801 31.5714 20.5473 31.5662C19.9772 31.5866 19.4171 31.4344 18.9334 31.1351C18.4956 30.846 18.1595 30.4249 17.9864 29.9329C17.8133 29.4713 17.7369 28.9793 17.7522 28.4873C17.747 28.1221 17.8031 27.7619 17.9202 27.422C18.078 26.9198 18.3886 26.4836 18.8112 26.1691C19.2541 25.8597 19.7837 25.6973 20.3285 25.7075C20.9853 25.6771 21.6217 25.9053 22.1104 26.3467C22.5737 26.8032 22.8639 27.4119 22.925 28.0561H22.9098ZM20.3285 27.0517C19.9059 27.0213 19.5189 27.2952 19.4069 27.701C19.3763 27.8177 19.3509 27.9343 19.3306 28.0561C19.3306 28.0814 19.3458 28.1068 19.3713 28.1119C19.3713 28.1119 19.3815 28.1119 19.3865 28.1119H21.3009C21.3468 28.1119 21.362 28.0916 21.3416 28.0561C21.306 27.843 21.2857 27.7416 21.2857 27.7517C21.2296 27.5488 21.1074 27.3662 20.9394 27.2343C20.7612 27.1075 20.5423 27.0415 20.3233 27.0517H20.3285ZM26.1377 25.7126C26.5807 25.7024 27.0185 25.7887 27.4259 25.9662C27.7772 26.1082 28.0827 26.3467 28.3067 26.6459C28.5103 26.9249 28.6223 27.2597 28.6223 27.6046V31.3482C28.6223 31.3836 28.6071 31.4191 28.5867 31.4445C28.5612 31.4699 28.5307 31.48 28.4951 31.48H27.1967C27.1611 31.48 27.1305 31.4699 27.1051 31.4445C27.0796 31.4191 27.0644 31.3836 27.0644 31.3482V30.988C27.0644 30.988 27.0592 30.9576 27.044 30.9474C27.0287 30.9373 27.0135 30.9474 27.0033 30.9677C26.6316 31.3989 26.0766 31.6271 25.5064 31.5764C25.0075 31.6017 24.5136 31.4546 24.1062 31.1604C23.7397 30.8561 23.536 30.3946 23.5716 29.9228C23.5462 29.4104 23.7702 28.9184 24.1775 28.6039C24.6765 28.264 25.2773 28.0967 25.8832 28.1372H27.0083C27.0338 28.1372 27.0592 28.1221 27.0644 28.0967C27.0644 28.0967 27.0644 28.0865 27.0644 28.0814V27.8379C27.0746 27.6249 26.9931 27.4169 26.8404 27.2698C26.652 27.1227 26.4126 27.0467 26.1733 27.0669C25.9748 27.0619 25.7814 27.1024 25.6082 27.1886C25.4656 27.2597 25.3588 27.3814 25.3129 27.5337C25.2925 27.6147 25.2468 27.6503 25.1704 27.6452L23.8263 27.4677C23.7346 27.4525 23.6938 27.4169 23.704 27.3713C23.7346 27.0568 23.8619 26.7626 24.0757 26.5292C24.315 26.2655 24.6103 26.0677 24.9464 25.9459C25.3282 25.7988 25.7355 25.7227 26.1479 25.7328L26.1377 25.7126ZM25.9137 30.4046C26.2039 30.4148 26.4891 30.3235 26.7182 30.1511C26.932 30.004 27.0542 29.7605 27.0491 29.5018V29.101C27.0491 29.0757 27.0338 29.0503 27.0083 29.0452C27.0083 29.0452 26.9981 29.0452 26.9931 29.0452H26.1988C25.9239 29.03 25.654 29.0959 25.4147 29.233C25.2315 29.3445 25.1245 29.5474 25.1296 29.7605C25.1195 29.938 25.1958 30.1156 25.3384 30.2271C25.5013 30.3489 25.6998 30.4098 25.9036 30.3996L25.9137 30.4046ZM33.2555 23.8814C33.2555 23.8459 33.2708 23.8104 33.2912 23.785C33.3166 23.7597 33.3471 23.7495 33.3828 23.7495H34.6812C34.7167 23.7495 34.7473 23.7597 34.7728 23.785C34.7982 23.8104 34.8084 23.8459 34.8084 23.8814V31.3431C34.8084 31.3786 34.7932 31.4141 34.7728 31.4395C34.7473 31.4648 34.7167 31.475 34.6812 31.475H33.3828C33.3471 31.475 33.3166 31.4648 33.2912 31.4395C33.2657 31.4141 33.2555 31.3786 33.2555 31.3431V30.983C33.2555 30.983 33.2453 30.9525 33.2301 30.9474C33.2148 30.9474 33.1996 30.9474 33.1894 30.9576C32.889 31.3583 32.4155 31.5815 31.9165 31.5662C31.4328 31.5764 30.9644 31.4243 30.5825 31.1351C30.2007 30.8359 29.9156 30.4249 29.7781 29.9583C29.6457 29.522 29.5846 29.0757 29.5948 28.6191C29.5846 28.1576 29.6508 27.6908 29.7934 27.2495C29.9461 26.8032 30.2262 26.4126 30.5978 26.1286C30.9898 25.8394 31.4684 25.6973 31.9521 25.7126C32.4307 25.6873 32.894 25.8952 33.1944 26.2655C33.2046 26.2908 33.2199 26.2959 33.2351 26.2908C33.2505 26.2807 33.2606 26.2655 33.2606 26.2503V23.8864L33.2555 23.8814ZM33.0213 29.7553C33.1842 29.4054 33.2606 29.025 33.2453 28.6394C33.2657 28.2387 33.1791 27.8379 33.001 27.4778C32.8584 27.2039 32.5682 27.0415 32.2627 27.0467C31.942 27.0315 31.6364 27.1988 31.4735 27.4778C31.2699 27.8329 31.1782 28.2387 31.1986 28.6496C31.1833 29.03 31.2648 29.4104 31.4328 29.7553C31.5906 30.0597 31.9114 30.2423 32.2525 30.2322C32.5834 30.2322 32.8838 30.0495 33.0264 29.7553H33.0213ZM41.0352 28.0561C41.081 28.3655 41.0963 28.68 41.0759 28.9945C41.0861 29.0604 41.0352 29.1213 40.969 29.1314C40.9588 29.1314 40.9486 29.1314 40.9384 29.1314H37.5119C37.4661 29.1314 37.4508 29.1518 37.4712 29.1873C37.4915 29.3394 37.5323 29.4865 37.5883 29.6286C37.8123 30.0547 38.2808 30.2982 38.7645 30.2423C39.2125 30.2525 39.6299 30.0395 39.8845 29.6743C39.9049 29.6235 39.9609 29.5931 40.0169 29.6134C40.0373 29.6184 40.0525 29.6336 40.0678 29.6489L40.8621 30.4351C40.8926 30.4605 40.913 30.496 40.9181 30.5315C40.913 30.567 40.8977 30.5974 40.8773 30.6228C40.6228 30.9271 40.302 31.1706 39.9355 31.3228C39.5383 31.4902 39.1055 31.5714 38.6728 31.5662C38.1025 31.5866 37.5424 31.4344 37.0588 31.1351C36.6209 30.846 36.2849 30.4249 36.1117 29.9329C35.9387 29.4713 35.8623 28.9793 35.8776 28.4873C35.8725 28.1221 35.9285 27.7619 36.0456 27.422C36.2035 26.9198 36.514 26.4836 36.9366 26.1691C37.3795 25.8597 37.9091 25.6973 38.4539 25.7075C39.1106 25.6771 39.747 25.9053 40.2359 26.3467C40.6992 26.8032 40.9893 27.4119 41.0504 28.0561H41.0352ZM38.4539 27.0517C38.0313 27.0213 37.6443 27.2952 37.5323 27.701C37.5017 27.8177 37.4763 27.9343 37.4559 28.0561C37.4559 28.0814 37.4712 28.1068 37.4967 28.1119C37.4967 28.1119 37.5069 28.1119 37.5119 28.1119H39.4263C39.4721 28.1119 39.4874 28.0916 39.467 28.0561C39.4314 27.843 39.411 27.7416 39.411 27.7517C39.355 27.5488 39.2328 27.3662 39.0648 27.2343C38.8866 27.1075 38.6677 27.0415 38.4487 27.0517H38.4539ZM44.8843 25.7278C45.1032 25.7176 45.3221 25.7684 45.5105 25.8799C45.5716 25.9104 45.6022 25.9815 45.5767 26.0474L45.3425 27.3104C45.3425 27.3966 45.2865 27.422 45.1898 27.3866C45.0624 27.3459 44.9352 27.3307 44.8028 27.3307C44.7214 27.3307 44.6399 27.3409 44.5635 27.3561C44.309 27.3713 44.0697 27.4728 43.8864 27.6452C43.698 27.8279 43.5962 28.0764 43.6114 28.3402V31.3532C43.6114 31.4243 43.5656 31.4851 43.4943 31.4902C43.4892 31.4902 43.4842 31.4902 43.474 31.4902H42.1808C42.1094 31.4902 42.0483 31.4445 42.0433 31.3735C42.0433 31.3684 42.0433 31.3634 42.0433 31.3532V25.9408C42.0433 25.9053 42.0535 25.8749 42.0789 25.8495C42.1044 25.8242 42.1401 25.814 42.1757 25.814H43.4688C43.5045 25.814 43.5401 25.8292 43.5656 25.8495C43.591 25.8749 43.6013 25.9053 43.6013 25.9408V26.3619C43.6013 26.3619 43.6063 26.3923 43.6216 26.4024C43.6317 26.4075 43.6471 26.4024 43.6572 26.3974C43.6572 26.3974 43.6572 26.3974 43.6572 26.3923C43.9169 25.9713 44.3803 25.7227 44.8792 25.7278H44.8843Z" fill="#252530"/>
<path d="M19.2116 40.9304C19.1709 40.9304 19.1353 40.9101 19.1251 40.8696L18.0049 36.7151V36.6898C17.9999 36.6543 18.0202 36.6339 18.0661 36.6339H18.6719C18.7127 36.6339 18.7483 36.6543 18.7584 36.6948L19.4611 39.4949C19.4611 39.4949 19.4713 39.5152 19.4815 39.5152C19.4916 39.5152 19.4967 39.5101 19.5018 39.4949L20.1739 36.6948C20.1841 36.6594 20.2146 36.6339 20.2554 36.6339H20.8459C20.8866 36.6339 20.9223 36.6543 20.9325 36.6948L21.6453 39.5C21.6453 39.5 21.6555 39.5203 21.6657 39.5203C21.6759 39.5203 21.6809 39.5152 21.6861 39.5L22.3734 36.6948C22.3836 36.6543 22.4191 36.6289 22.4599 36.6339H23.0302C23.0862 36.6339 23.1116 36.6594 23.0964 36.7151L22.0322 40.8696C22.0221 40.9101 21.9864 40.9355 21.9456 40.9304H21.3755C21.3347 40.9304 21.2991 40.9101 21.2889 40.8696L20.566 37.9427C20.566 37.9427 20.5558 37.9224 20.5456 37.9173C20.5354 37.9173 20.5303 37.9275 20.5252 37.9427L19.8378 40.8696C19.8276 40.9051 19.7971 40.9304 19.7564 40.9304H19.2167H19.2116ZM23.7735 40.9304C23.7735 40.9304 23.7328 40.9203 23.7175 40.9051C23.7073 40.8899 23.6971 40.8746 23.6971 40.8544V36.705C23.6971 36.705 23.7023 36.6695 23.7175 36.6543C23.7328 36.6391 23.7532 36.6289 23.7735 36.6289H24.3387C24.3794 36.6339 24.4048 36.6644 24.415 36.705V40.8544C24.4099 40.8949 24.3794 40.9203 24.3387 40.9304H23.7735ZM27.8211 36.7101C27.8211 36.7101 27.8263 36.6746 27.8415 36.6594C27.8568 36.6441 27.8772 36.6339 27.8975 36.6339H28.4627C28.5034 36.6391 28.5289 36.6695 28.5391 36.7101V40.8594C28.534 40.9 28.5034 40.9253 28.4627 40.9355H27.9128C27.8772 40.9355 27.8415 40.9203 27.8263 40.8848L26.0544 37.9883C26.0544 37.9883 26.0392 37.9681 26.029 37.9681C26.0189 37.9681 26.0189 37.9782 26.0189 37.9985L26.029 40.8594C26.0239 40.9 25.9934 40.9253 25.9526 40.9355H25.3875C25.3875 40.9355 25.3468 40.9253 25.3314 40.9101C25.3213 40.8949 25.3111 40.8797 25.3111 40.8594V36.7101C25.3111 36.7101 25.3162 36.6746 25.3314 36.6594C25.3468 36.6441 25.3671 36.6339 25.3875 36.6339H25.9373C25.973 36.6339 26.0087 36.6492 26.0239 36.6848L27.7906 39.5811C27.7906 39.5811 27.8059 39.5964 27.8161 39.5912C27.8263 39.5912 27.8263 39.5811 27.8263 39.5659V36.705H27.8211V36.7101ZM32.2659 36.6339C32.3067 36.6391 32.3322 36.6695 32.3423 36.7101V37.1818C32.3372 37.2224 32.3067 37.2478 32.2659 37.2579H31.1306C31.1306 37.2579 31.1001 37.268 31.1001 37.2782C31.1001 37.2782 31.1001 37.2833 31.1001 37.2884V40.8594C31.1001 40.8594 31.0949 40.8949 31.0797 40.9101C31.0644 40.9253 31.044 40.9355 31.0237 40.9355H30.4585C30.4178 40.9304 30.3923 40.9 30.3821 40.8594V37.2884C30.3821 37.2884 30.3719 37.2579 30.3617 37.2579C30.3617 37.2579 30.3567 37.2579 30.3516 37.2579H29.262C29.262 37.2579 29.2213 37.2478 29.2061 37.2325C29.1959 37.2173 29.1857 37.2021 29.1857 37.1818V36.7101C29.1857 36.7101 29.1907 36.6746 29.2061 36.6594C29.2213 36.6441 29.2416 36.6339 29.262 36.6339H32.2609H32.2659ZM35.9165 37.1716C35.9114 37.2123 35.8809 37.2376 35.8401 37.2478H33.7425C33.7425 37.2478 33.7119 37.2579 33.7119 37.268C33.7119 37.268 33.7119 37.2732 33.7119 37.2782V38.4246C33.7119 38.4246 33.7221 38.455 33.7323 38.455C33.7323 38.455 33.7374 38.455 33.7425 38.455H35.1528C35.1884 38.45 35.2241 38.4753 35.2291 38.5108C35.2291 38.5159 35.2291 38.521 35.2291 38.5312V38.9978C35.2343 39.0333 35.2088 39.0688 35.1732 39.0739C35.168 39.0739 35.163 39.0739 35.1528 39.0739H33.7425C33.7425 39.0739 33.7119 39.084 33.7119 39.0942C33.7119 39.0942 33.7119 39.0992 33.7119 39.1043V40.2862C33.7119 40.2862 33.7221 40.3167 33.7323 40.3167C33.7323 40.3167 33.7374 40.3167 33.7425 40.3167H35.8401C35.8809 40.3217 35.9063 40.3522 35.9165 40.3927V40.8594C35.9114 40.9 35.8809 40.9253 35.8401 40.9355H33.0704C33.0704 40.9355 33.0297 40.9253 33.0144 40.9101C33.0043 40.8949 32.9941 40.8797 32.9941 40.8594V36.7101C32.9941 36.7101 32.9991 36.6746 33.0144 36.6594C33.0297 36.6441 33.05 36.6339 33.0704 36.6339H35.8401C35.8809 36.6391 35.9063 36.6695 35.9165 36.7101V37.1768V37.1716ZM39.063 40.9253C39.0273 40.9253 38.9918 40.9051 38.9764 40.8696L38.1618 39.1043C38.1618 39.1043 38.1414 39.0789 38.1262 39.0789H37.3879C37.3879 39.0789 37.3573 39.0891 37.3573 39.0992C37.3573 39.0992 37.3573 39.1043 37.3573 39.1094V40.8544C37.3523 40.8949 37.3217 40.9203 37.281 40.9304H36.7159C36.7159 40.9304 36.6751 40.9203 36.6598 40.9051C36.6496 40.8899 36.6395 40.8746 36.6395 40.8544V36.705C36.6395 36.705 36.6446 36.6695 36.6598 36.6543C36.6751 36.6391 36.6955 36.6289 36.7159 36.6289H38.4113C38.6404 36.6289 38.8695 36.6746 39.0783 36.7811C39.2667 36.8826 39.4244 37.0347 39.5264 37.2224C39.6332 37.4253 39.6893 37.6485 39.6841 37.8768C39.6943 38.1354 39.6128 38.3841 39.4601 38.5971C39.3124 38.8 39.0986 38.9471 38.8543 39.013C38.8441 39.013 38.8389 39.013 38.8339 39.0232C38.8339 39.0333 38.8339 39.0384 38.8339 39.0485L39.7045 40.834C39.7045 40.834 39.7147 40.8594 39.7147 40.8696C39.7147 40.8999 39.6943 40.9203 39.6485 40.9203H39.0579L39.063 40.9253ZM37.3879 37.2427C37.3879 37.2427 37.3573 37.2528 37.3573 37.263C37.3573 37.263 37.3573 37.268 37.3573 37.2732V38.4956C37.3573 38.4956 37.3675 38.526 37.3777 38.526C37.3777 38.526 37.3828 38.526 37.3879 38.526H38.3095C38.4877 38.5312 38.6608 38.4703 38.788 38.3485C38.9102 38.2268 38.9764 38.0594 38.9663 37.8869C38.9714 37.7145 38.9102 37.547 38.788 37.4203C38.6608 37.2985 38.4877 37.2325 38.3095 37.2427H37.3879Z" fill="white"/>
<path d="M20.954 52.0085C20.954 52.0085 20.9388 52.0338 20.9438 52.044C20.954 52.0541 20.9642 52.0643 20.9795 52.0643H23.3979C23.4233 52.0643 23.4539 52.0744 23.4742 52.0947C23.4997 52.1099 23.5099 52.1404 23.5099 52.1707V53.0382C23.5099 53.0686 23.4946 53.094 23.4742 53.1142C23.4539 53.1345 23.4285 53.1447 23.3979 53.1447H19.3808C19.3502 53.1447 19.3197 53.1345 19.2993 53.1142C19.2789 53.094 19.2688 53.0686 19.2688 53.0382V52.2164C19.2688 52.1657 19.2891 52.115 19.3247 52.0795C19.6149 51.7954 19.9154 51.486 20.2158 51.1512C20.5162 50.8164 20.7096 50.6084 20.7859 50.5273C20.949 50.3295 21.1169 50.1417 21.29 49.9642C21.6922 49.6142 21.9774 49.1475 22.1046 48.6352C22.1098 48.4374 22.0283 48.2498 21.8806 48.1178C21.5395 47.854 21.066 47.854 20.7249 48.1178C20.5721 48.2548 20.4907 48.4476 20.4958 48.6504V48.8737C20.4958 48.9294 20.4499 48.9751 20.3889 48.9801H19.3349C19.3095 48.9801 19.2789 48.97 19.2586 48.9497C19.2331 48.9345 19.2229 48.9041 19.2229 48.8737V48.4577C19.2382 48.1482 19.3451 47.854 19.5284 47.6055C19.7168 47.357 19.9714 47.1591 20.2615 47.0425C20.5875 46.9055 20.9438 46.8395 21.2951 46.8447C21.677 46.8345 22.0537 46.9156 22.4 47.083C22.6953 47.2251 22.9448 47.4432 23.1229 47.7171C23.296 47.9809 23.3826 48.2903 23.3826 48.6048C23.3826 48.8737 23.3113 49.1324 23.1942 49.3707C23.0415 49.6751 22.8531 49.9591 22.6342 50.2179C22.4509 50.4461 22.2523 50.6744 22.0385 50.9027C21.8246 51.1309 21.509 51.4556 21.0864 51.8765L20.949 52.0135L20.954 52.0085ZM26.412 53.236C25.8418 53.2664 25.2817 53.0686 24.8591 52.6882C24.4671 52.2925 24.2583 51.7548 24.2889 51.1969V48.8483C24.2634 48.3005 24.4671 47.7678 24.8591 47.3823C25.2817 47.0018 25.8418 46.804 26.412 46.8345C26.9822 46.804 27.5423 47.0018 27.9699 47.3823C28.362 47.7678 28.5708 48.3005 28.5402 48.8483V51.1969C28.5708 51.7498 28.362 52.2925 27.9699 52.6882C27.5423 53.0686 26.9822 53.2613 26.412 53.236ZM26.412 52.1606C26.6513 52.1707 26.8804 52.0845 27.0484 51.9171C27.2164 51.7396 27.303 51.5011 27.2877 51.2628V48.8128C27.2978 48.5743 27.2114 48.336 27.0484 48.1635C26.692 47.8338 26.1422 47.8338 25.7857 48.1635C25.6228 48.341 25.5363 48.5743 25.5465 48.8128V51.2628C25.5363 51.5063 25.6228 51.7396 25.7857 51.9171C25.9487 52.0845 26.1778 52.1759 26.412 52.1606ZM31.0451 52.0085C31.0451 52.0085 31.0299 52.0338 31.0401 52.044C31.0401 52.0541 31.0553 52.0643 31.0757 52.0643H33.4941C33.5502 52.0643 33.5959 52.1099 33.6011 52.1707V53.0382C33.6011 53.094 33.5552 53.1396 33.4941 53.1447H29.4719C29.416 53.1447 29.3701 53.099 29.3651 53.0382V52.2164C29.3651 52.1657 29.3803 52.12 29.416 52.0795C29.7112 51.7954 30.0116 51.486 30.3069 51.1512C30.6073 50.8164 30.7956 50.6084 30.8772 50.5273C31.0451 50.3295 31.2182 50.1417 31.3863 49.9642C31.7885 49.6142 32.0736 49.1475 32.2009 48.6352C32.206 48.4374 32.1245 48.2498 31.9769 48.1178C31.8139 47.9809 31.6052 47.9149 31.3914 47.92C31.1827 47.9099 30.9739 47.9809 30.811 48.1178C30.6633 48.2548 30.5818 48.4476 30.587 48.6504V48.8737C30.587 48.899 30.5768 48.9294 30.5564 48.9497C30.5361 48.97 30.5055 48.9801 30.475 48.9801H29.421C29.3651 48.9801 29.3192 48.9345 29.314 48.8737V48.4577C29.3242 48.1482 29.4312 47.854 29.6145 47.6055C29.8079 47.357 30.0626 47.1591 30.3527 47.0425C30.6786 46.9106 31.0299 46.8395 31.3812 46.8447C31.763 46.8345 32.1398 46.9156 32.486 47.083C32.7813 47.22 33.0359 47.4432 33.2141 47.7171C33.3821 47.9859 33.4687 48.2903 33.4687 48.6048C33.4687 48.8685 33.4025 49.1324 33.2853 49.3707C33.1326 49.6751 32.9392 49.9591 32.7202 50.2179C32.5369 50.4461 32.3383 50.6744 32.1245 50.9027C31.9107 51.1309 31.5951 51.4556 31.1725 51.8765L31.035 52.0135L31.0451 52.0085ZM38.1018 50.1671C38.224 50.4664 38.2851 50.786 38.2801 51.1055C38.2801 51.4099 38.2291 51.7091 38.1222 51.9933C37.9898 52.3635 37.7353 52.6729 37.3993 52.8809C37.0428 53.1042 36.6254 53.2157 36.2028 53.2056C35.7802 53.2157 35.3678 53.099 35.0164 52.8657C34.6804 52.6425 34.4208 52.323 34.2782 51.9476C34.1916 51.7041 34.1459 51.4556 34.1357 51.1969C34.1305 51.1461 34.1611 51.1005 34.212 51.0903C34.2222 51.0903 34.2273 51.0903 34.2375 51.0903H35.2965C35.3474 51.0852 35.3933 51.1157 35.4035 51.1664C35.4035 51.1766 35.4035 51.1816 35.4035 51.1918C35.4187 51.3389 35.4492 51.486 35.5001 51.628C35.5969 51.9273 35.882 52.1302 36.1976 52.12C36.498 52.1404 36.7781 51.9628 36.885 51.6838C36.9715 51.4911 37.0123 51.278 37.0072 51.065C37.0174 50.8265 36.9715 50.5932 36.8697 50.3802C36.7526 50.1113 36.4777 49.9439 36.1875 49.9642C36.1162 49.9642 36.0449 49.9845 35.9788 50.02C35.9075 50.0606 35.8209 50.1164 35.7191 50.1874C35.6987 50.2026 35.6784 50.2128 35.6529 50.2128C35.6173 50.2128 35.5867 50.1924 35.5714 50.1621L35.0419 49.4214C35.0419 49.4214 35.0216 49.3809 35.0216 49.3606C35.0216 49.3302 35.0318 49.2946 35.0572 49.2743L36.4726 48.0367C36.4726 48.0367 36.4879 48.0163 36.493 48.0011C36.493 47.991 36.4777 47.9809 36.4625 47.9809H34.3648C34.3342 47.9809 34.3088 47.9707 34.2833 47.9504C34.2629 47.9301 34.2527 47.9047 34.2527 47.8744V47.007C34.2527 46.9816 34.2629 46.9511 34.2833 46.9309C34.3036 46.9106 34.3342 46.9004 34.3648 46.9004H38.0866C38.1171 46.9004 38.1477 46.9106 38.1681 46.9309C38.1884 46.9511 38.1986 46.9765 38.1986 47.007V47.991C38.1986 48.0418 38.1731 48.0925 38.1375 48.128L36.9665 49.1932C36.9665 49.1932 36.9512 49.2135 36.9563 49.2236C36.9614 49.2338 36.9715 49.2388 36.9919 49.2439C37.496 49.3352 37.9186 49.6852 38.1018 50.1621V50.1671Z" fill="#252530"/>
</g>
<defs>
<clipPath id="clip0_0_407">
<rect width="57.2121" height="64" fill="white" transform="translate(0.242424)"/>
</clipPath>
</defs>
</svg>
