<svg width="83" height="40" viewBox="0 0 83 40" fill="none" xmlns="http://www.w3.org/2000/svg">
<g clip-path="url(#clip0_0_415)">
<mask id="mask0_0_415" style="mask-type:luminance" maskUnits="userSpaceOnUse" x="0" y="0" width="83" height="40">
<path d="M82.1212 0H0.454544V40H82.1212V0Z" fill="white"/>
</mask>
<g mask="url(#mask0_0_415)">
<path d="M81.6974 6.07716L81.4641 8.92096H80.3103C79.9343 8.9168 79.5613 8.9898 79.2142 9.13563C78.8672 9.28155 78.5534 9.49713 78.2917 9.76921C78.03 10.0414 77.826 10.3644 77.6922 10.7186C77.5585 11.0728 77.4979 11.4506 77.5138 11.8293V18.2544H74.2558V6.07658H77.3475L77.4117 7.60211C78.0656 6.555 79.1943 6.07658 80.5925 6.07658L81.6974 6.07716ZM59.0845 18.255H55.8137V11.817C55.8137 10.4724 55.697 8.76621 53.8129 8.76621C52.0045 8.76621 51.2736 10.0851 51.2736 11.6232V18.255H48.0157V6.07716H51.0432L51.1075 7.62851C51.5015 7.02672 52.0452 6.53954 52.6843 6.21524C53.3233 5.89094 54.0353 5.7411 54.7497 5.78031C58.0333 5.78031 59.0723 8.14537 59.0723 10.6147V18.2578L59.0845 18.255ZM46.6041 15.4111L46.3707 18.178C45.6131 18.3783 44.8321 18.474 44.049 18.4625C40.9708 18.4625 40.0859 17.0404 40.0859 14.183V2.62305H43.3444V6.06194H46.5895L46.3562 8.90571H43.3293V13.947C43.3293 15.0976 43.6372 15.7186 44.8039 15.7186C45.4155 15.7165 46.0226 15.6117 46.6 15.4083M39.0166 6.07486L38.7606 8.91863H37.875C37.5016 8.91538 37.1316 8.98938 36.7879 9.13621C36.444 9.28313 36.1339 9.49971 35.8765 9.77238C35.6192 10.0451 35.4201 10.3683 35.2918 10.7218C35.1635 11.0752 35.1085 11.4513 35.1305 11.827V18.252H31.8597V6.07428H34.9514L35.0156 7.59981C35.6695 6.5527 36.7982 6.07428 38.1965 6.07428L39.0166 6.07486ZM17.1219 16.908C14.8845 18.1823 12.3397 18.8045 9.7718 18.7048C4.35905 18.5372 0.446732 15.1501 0.446732 9.42246C0.446732 3.71951 4.39697 0.0744418 9.7718 -0.00140143C12.5035 -0.040205 14.9407 0.657671 16.8517 2.35033L14.5557 4.69029C13.1405 3.57174 11.359 3.03165 9.56646 3.17797C6.18019 3.33318 4.1415 5.81487 4.089 9.2278C4.0505 12.9253 6.2951 15.4716 9.80971 15.5621C11.129 15.6495 12.4505 15.428 13.6709 14.9154V11.1409H10.015L10.2583 8.03789H17.1207V16.9062L17.1219 16.908ZM72.7893 13.327H63.841C63.9487 14.0406 64.3096 14.6905 64.8566 15.1565C65.4037 15.6225 66.0999 15.8729 66.816 15.861C68.2906 15.8998 69.1114 15.4493 70.1888 14.361L72.318 16.0031C71.6838 16.8308 70.8634 17.4946 69.9245 17.9397C68.9855 18.3848 67.9551 18.5985 66.9181 18.563C63.2758 18.563 60.5563 16.0032 60.5563 12.177C60.5195 11.3372 60.6547 10.4988 60.9536 9.71413C61.2525 8.92938 61.7085 8.21507 62.2935 7.61589C62.8783 7.0167 63.5795 6.54563 64.353 6.23161C65.1266 5.91757 65.9561 5.7673 66.7898 5.79066C70.6631 5.79066 72.7923 8.15673 72.7923 12.3581L72.7893 13.327ZM69.5186 10.7806C69.505 10.4285 69.4196 10.083 69.268 9.76555C69.1163 9.44805 68.9015 9.1653 68.6369 8.93496C68.3723 8.70463 68.0635 8.53163 67.7299 8.42655C67.3961 8.32151 67.0445 8.28653 66.697 8.32411C66.007 8.31849 65.3382 8.56388 64.8132 9.01513C64.2882 9.4663 63.9422 10.0931 63.8386 10.7806H69.5186ZM29.8075 10.2768V18.2526H26.9347L26.8576 17.0504C25.9721 18.1492 24.536 18.5495 23.0613 18.5495C20.8446 18.5495 18.7383 17.4511 18.7004 14.8778C18.6362 10.8316 23.2153 10.5478 26.0882 10.5478H26.6651V10.3925C26.6651 9.0608 25.793 8.33471 24.1381 8.33471C22.9415 8.34113 21.7916 8.8033 20.9188 9.6283L19.0328 7.70201C20.5424 6.43281 22.455 5.75376 24.4205 5.78893C28.1539 5.776 29.8075 7.5212 29.8075 10.275M26.6651 12.9377H26.216C24.6765 12.9377 21.9577 13.0153 21.9705 14.6426C21.9834 16.9309 26.678 16.2072 26.678 13.441V12.9365L26.6651 12.9377ZM79.1517 16.8422C79.1467 16.6648 79.1772 16.4881 79.2415 16.3229C79.3057 16.1576 79.4024 16.007 79.5257 15.8802C79.649 15.7535 79.7964 15.6534 79.959 15.5854C80.1217 15.5174 80.2962 15.483 80.4724 15.4846C80.6482 15.484 80.8225 15.5188 80.9848 15.5871C81.147 15.6555 81.294 15.756 81.4171 15.8825C81.5403 16.009 81.637 16.1592 81.7017 16.324C81.7664 16.4889 81.7976 16.665 81.7937 16.8422C81.8 17.0206 81.7703 17.1984 81.7066 17.365C81.643 17.5315 81.5465 17.6834 81.4231 17.8114C81.2997 17.9395 81.1519 18.041 80.9885 18.11C80.825 18.1789 80.6495 18.214 80.4724 18.2127C80.2952 18.214 80.1199 18.1789 79.9565 18.11C79.7931 18.041 79.6452 17.9395 79.5219 17.8114C79.3985 17.6834 79.302 17.5315 79.2385 17.365C79.1749 17.1984 79.1454 17.0206 79.1517 16.8422ZM80.4724 18.4837C80.6875 18.4859 80.901 18.445 81.1002 18.3635C81.2995 18.2819 81.4809 18.1613 81.6336 18.0086C81.7864 17.856 81.9075 17.674 81.99 17.4738C82.0726 17.2735 82.115 17.059 82.1145 16.8422C82.1148 16.626 82.0722 16.4119 81.9895 16.2124C81.9067 16.0129 81.7855 15.8321 81.6326 15.6805C81.4797 15.5288 81.2983 15.4093 81.0991 15.329C80.9 15.2488 80.6868 15.2094 80.4724 15.213C80.2572 15.2093 80.0435 15.2485 79.8435 15.3285C79.6436 15.4085 79.4615 15.5277 79.3076 15.6793C79.1538 15.8308 79.0312 16.0116 78.9472 16.2112C78.8632 16.4109 78.8192 16.6254 78.818 16.8422C78.818 17.06 78.861 17.2755 78.9445 17.4764C79.028 17.6772 79.1501 17.8593 79.3041 18.012C79.458 18.1649 79.6407 18.2854 79.8413 18.3663C80.0419 18.4473 80.2563 18.4871 80.4724 18.4837ZM80.1265 16.9709H80.4601L80.9473 17.7853H81.268L80.7291 16.958C80.7951 16.9572 80.8602 16.9431 80.9206 16.9165C80.9811 16.89 81.0357 16.8516 81.0812 16.8035C81.1266 16.7553 81.1621 16.6983 81.1854 16.6361C81.2087 16.5739 81.2193 16.5076 81.2167 16.4412C81.2167 16.066 80.9985 15.898 80.5494 15.898H79.8313V17.7853H80.1136L80.1265 16.9709ZM80.1265 16.7251V16.1438H80.5115C80.7035 16.1438 80.9198 16.1825 80.9198 16.4148C80.9198 16.6993 80.7016 16.7251 80.4706 16.7251H80.1265Z" fill="white"/>
<path d="M79.0978 25.9648H3.47796C1.80818 25.9648 0.454544 27.3291 0.454544 29.0121V36.9527C0.454544 38.6357 1.80818 39.9999 3.47796 39.9999H79.0978C80.7675 39.9999 82.1212 38.6357 82.1212 36.9527V29.0121C82.1212 27.3291 80.7675 25.9648 79.0978 25.9648Z" fill="white"/>
<path d="M8.23493 32.9816C8.22361 32.5452 8.30068 32.111 8.46123 31.7055C8.62178 31.3 8.86244 30.9317 9.16877 30.623C9.4751 30.3143 9.8406 30.0716 10.243 29.9099C10.6454 29.7481 11.0762 29.6708 11.5092 29.6823C12.0501 29.675 12.5837 29.8089 13.0581 30.0709C13.5325 30.333 13.9316 30.7144 14.2165 31.1779L13.146 31.8034C12.9801 31.517 12.7403 31.2813 12.4519 31.1216C12.1634 30.9619 11.8374 30.8844 11.5086 30.8969C11.2348 30.8837 10.9613 30.929 10.7059 31.0295C10.4504 31.1299 10.2189 31.2835 10.0262 31.4802C9.8336 31.6769 9.68427 31.9122 9.58785 32.1709C9.49152 32.4296 9.45035 32.7058 9.46694 32.9816C9.45127 33.2569 9.49319 33.5324 9.59002 33.7903C9.68685 34.0481 9.83627 34.2824 10.0288 34.4781C10.2214 34.6739 10.4526 34.8267 10.7075 34.9265C10.9625 35.0264 11.2354 35.0711 11.5086 35.0578C11.8365 35.071 12.1619 34.9944 12.4501 34.8364C12.7384 34.6784 12.9789 34.4444 13.146 34.1598L14.2165 34.7853C13.9332 35.2504 13.5344 35.6329 13.0597 35.8951C12.5849 36.1574 12.0505 36.2907 11.5092 36.2813C11.0764 36.2919 10.6459 36.2136 10.244 36.0516C9.84202 35.8895 9.47694 35.647 9.17077 35.3385C8.8646 35.03 8.62378 34.6619 8.46294 34.2568C8.30209 33.8517 8.22445 33.4179 8.23493 32.9816Z" fill="#020F23"/>
<path d="M14.9919 32.9821C14.9871 32.5481 15.0683 32.1175 15.2307 31.7155C15.3931 31.3135 15.6334 30.9483 15.9376 30.641C16.2419 30.3338 16.6038 30.0907 17.0024 29.9262C17.4009 29.7617 17.8279 29.6788 18.2586 29.6827C18.6896 29.6789 19.1169 29.7614 19.5159 29.9259C19.9148 30.0903 20.2773 30.3333 20.5821 30.6404C20.8868 30.9476 21.1279 31.3129 21.2912 31.7149C21.4544 32.117 21.5364 32.5478 21.5327 32.9821C21.5357 33.4163 21.4529 33.847 21.2894 34.2487C21.1259 34.6504 20.885 35.0153 20.5803 35.3223C20.2758 35.6294 19.9135 35.8724 19.5149 36.0372C19.1164 36.202 18.6894 36.2853 18.2586 36.2823C17.8281 36.2853 17.4014 36.2018 17.0032 36.0369C16.605 35.872 16.2434 35.6289 15.9394 35.3218C15.6353 35.0147 15.3949 34.6498 15.2323 34.2481C15.0696 33.8464 14.9879 33.4159 14.9919 32.9821ZM20.2897 32.9821C20.2998 32.7087 20.2543 32.436 20.1561 32.1808C20.0579 31.9257 19.9092 31.6934 19.7189 31.4982C19.5286 31.303 19.3007 31.1491 19.0493 31.0458C18.7979 30.9424 18.5282 30.892 18.2567 30.8973C17.9853 30.892 17.7156 30.9424 17.4642 31.0458C17.2128 31.1491 16.9849 31.303 16.7945 31.4982C16.6042 31.6934 16.4554 31.9257 16.3573 32.1808C16.2592 32.436 16.2139 32.7087 16.2239 32.9821C16.2148 33.2549 16.2609 33.5268 16.3594 33.781C16.4581 34.0353 16.607 34.2666 16.7973 34.4608C16.9875 34.6551 17.2151 34.8082 17.466 34.911C17.7169 35.0137 17.9859 35.0638 18.2567 35.0582C18.5275 35.0639 18.7966 35.0139 19.0475 34.9113C19.2985 34.8086 19.5261 34.6554 19.7164 34.4611C19.9066 34.2668 20.0555 34.0353 20.1541 33.781C20.2527 33.5268 20.2989 33.2549 20.2897 32.9821Z" fill="#020F23"/>
<path d="M22.4762 32.9821C22.4715 32.5481 22.5526 32.1175 22.7151 31.7155C22.8775 31.3135 23.1178 30.9483 23.4221 30.641C23.7262 30.3338 24.0882 30.0907 24.4867 29.9262C24.8852 29.7617 25.3123 29.6788 25.743 29.6827C26.174 29.679 26.6013 29.7617 27.0002 29.9262C27.3991 30.0907 27.7616 30.3336 28.0663 30.6407C28.3711 30.9478 28.6121 31.3129 28.7754 31.7149C28.9386 32.117 29.0209 32.5478 29.0172 32.9821C29.0201 33.4163 28.9375 33.847 28.774 34.2487C28.6105 34.6504 28.3694 35.0153 28.0647 35.3223C27.7601 35.6294 27.3979 35.8724 26.9994 36.0372C26.6008 36.202 26.1737 36.2853 25.743 36.2823C25.3125 36.2853 24.8857 36.2018 24.4876 36.0369C24.0894 35.872 23.7277 35.6289 23.4237 35.3218C23.1197 35.0147 22.8795 34.6498 22.7168 34.2481C22.5541 33.8464 22.4723 33.4159 22.4762 32.9821ZM27.7746 32.9821C27.7846 32.7087 27.7391 32.436 27.6409 32.1808C27.5427 31.9257 27.3941 31.6937 27.2037 31.4985C27.0134 31.3033 26.7856 31.1494 26.5342 31.0461C26.2828 30.9427 26.0132 30.8921 25.7418 30.8973C25.4704 30.892 25.2006 30.9424 24.9491 31.0458C24.6977 31.1491 24.47 31.303 24.2796 31.4982C24.0893 31.6934 23.9406 31.9257 23.8424 32.1808C23.7443 32.436 23.6988 32.7087 23.7088 32.9821C23.6997 33.2549 23.746 33.5268 23.8446 33.781C23.9431 34.0353 24.0921 34.2666 24.2824 34.4608C24.4726 34.6551 24.7001 34.8082 24.951 34.911C25.2019 35.0137 25.4711 35.0638 25.7418 35.0582C26.0126 35.0638 26.2816 35.0137 26.5325 34.911C26.7835 34.8082 27.0109 34.6551 27.2011 34.4608C27.3914 34.2666 27.5405 34.0353 27.6391 33.781C27.7376 33.5268 27.7837 33.2549 27.7746 32.9821Z" fill="#020F23"/>
<path d="M33.8925 34.96V36.1572H30.2495V29.811H31.4908V34.9606L33.8925 34.96Z" fill="#020F23"/>
<path d="M37.0053 29.8091H38.3546L39.8928 34.6888L41.4223 29.8091H42.7808L40.6576 36.1552H39.1199L37.0053 29.8091Z" fill="#020F23"/>
<path d="M47.6385 34.96V36.1572H43.7436V29.811H47.5936V31.0076H44.985V32.3597H47.369V33.5356H44.985V34.959L47.6385 34.96Z" fill="#020F23"/>
<path d="M53.7568 29.8091V36.1552H52.8123L50.1138 32.2747V36.1552H48.8725V29.8091H49.8169L52.516 33.68V29.8091H53.7568Z" fill="#020F23"/>
<path d="M60.8193 32.9819C60.835 33.3931 60.7681 33.8033 60.6228 34.1879C60.4774 34.5725 60.2565 34.9235 59.9732 35.2199C59.69 35.5164 59.3501 35.7522 58.9743 35.9132C58.5985 36.0741 58.1944 36.157 57.786 36.1566H55.2846V29.8105H57.786C58.194 29.8102 58.5979 29.893 58.9735 30.0537C59.349 30.2144 59.6885 30.4497 59.9718 30.7458C60.255 31.0419 60.476 31.3925 60.6216 31.7767C60.7672 32.1609 60.8345 32.5709 60.8193 32.9819ZM59.6321 32.9819C59.6521 32.7272 59.619 32.471 59.535 32.23C59.451 31.989 59.3179 31.7685 59.1442 31.5824C58.9705 31.3963 58.7602 31.2487 58.5267 31.1495C58.2932 31.0501 58.0417 31.0015 57.7883 31.0059H56.5289V34.959H57.7883C58.0416 34.9632 58.2931 34.914 58.5265 34.8145C58.76 34.715 58.9703 34.5675 59.1438 34.3814C59.3173 34.1952 59.4502 33.9745 59.5341 33.7335C59.618 33.4924 59.651 33.2365 59.631 32.9819H59.6321Z" fill="#020F23"/>
<path d="M61.7731 32.9821C61.7684 32.5481 61.8495 32.1175 62.0119 31.7155C62.1743 31.3135 62.4147 30.9483 62.7188 30.641C63.023 30.3338 63.3849 30.0907 63.7834 29.9262C64.1819 29.7617 64.609 29.6788 65.0397 29.6827C65.4706 29.6789 65.8981 29.7614 66.297 29.9259C66.6959 30.0903 67.0585 30.3333 67.3633 30.6404C67.6681 30.9476 67.909 31.3129 68.0723 31.7149C68.2354 32.117 68.3177 32.5478 68.3139 32.9821C68.3169 33.4163 68.2342 33.847 68.0707 34.2487C67.9072 34.6504 67.6661 35.0153 67.3614 35.3223C67.0569 35.6294 66.6948 35.8724 66.2962 36.0372C65.8976 36.202 65.4704 36.2853 65.0397 36.2823C64.6092 36.2853 64.1825 36.2018 63.7844 36.0369C63.3863 35.872 63.0246 35.6289 62.7205 35.3218C62.4165 35.0147 62.1761 34.6498 62.0134 34.2481C61.8508 33.8464 61.7691 33.4159 61.7731 32.9821ZM67.0709 32.9821C67.0809 32.7087 67.0354 32.436 66.9373 32.1808C66.8392 31.9257 66.6904 31.6934 66.5001 31.4982C66.3098 31.303 66.0819 31.1491 65.8305 31.0458C65.5791 30.9424 65.3094 30.892 65.0379 30.8973C64.7664 30.892 64.4968 30.9424 64.2454 31.0458C63.994 31.1491 63.7661 31.303 63.5758 31.4982C63.3854 31.6934 63.2367 31.9257 63.1385 32.1808C63.0404 32.436 62.9949 32.7087 63.0049 32.9821C62.9958 33.2549 63.0421 33.5268 63.1407 33.781C63.2393 34.0353 63.3882 34.2666 63.5784 34.4608C63.7687 34.6551 63.9964 34.8082 64.2473 34.911C64.4982 35.0137 64.7672 35.0638 65.0379 35.0582C65.3089 35.0642 65.5783 35.0141 65.8295 34.9116C66.0807 34.809 66.3085 34.656 66.4989 34.4617C66.6894 34.2674 66.8386 34.036 66.9373 33.7816C67.0361 33.5273 67.0823 33.2551 67.0732 32.9821H67.0709Z" fill="#020F23"/>
<path d="M71.7319 33.9521H70.7876V36.1557H69.5463V29.8096H72.0651C72.3398 29.8087 72.6118 29.8624 72.8658 29.9677C73.1199 30.073 73.3508 30.228 73.5455 30.4233C73.7401 30.6187 73.8948 30.8504 74.0003 31.106C74.1059 31.3616 74.1605 31.6358 74.161 31.9127C74.1538 32.3054 74.0357 32.6877 73.8206 33.0153C73.6055 33.3429 73.3023 33.6021 72.9465 33.7623L74.3408 36.1557H72.999L71.7319 33.9521ZM70.7876 32.8557H72.0651C72.3019 32.8444 72.5246 32.7392 72.6847 32.5629C72.8448 32.3867 72.9293 32.1537 72.9197 31.915C72.9247 31.7971 72.9064 31.6793 72.8662 31.5685C72.8258 31.4577 72.7643 31.3558 72.6848 31.2691C72.6054 31.1823 72.5098 31.1123 72.4034 31.0629C72.2971 31.0136 72.1821 30.9858 72.0651 30.9814H70.7876V32.8557Z" fill="#020F23"/>
</g>
</g>
<defs>
<clipPath id="clip0_0_415">
<rect width="81.6667" height="40" fill="white" transform="translate(0.454544)"/>
</clipPath>
</defs>
</svg>
