<svg width="57" height="64" viewBox="0 0 57 64" fill="none" xmlns="http://www.w3.org/2000/svg">
<g clip-path="url(#clip0_0_399)">
<path d="M4.66602 49.828L28.5776 62.1615L51.58 49.828V1.59375H4.66602V49.828Z" fill="white"/>
<path d="M52.0632 1.77698L4.17981 50.6834L29.0006 63.1392L52.0632 51.1723V1.77698Z" fill="#F2F3F2"/>
<path d="M3.08984 17.6753V50.8721L3.9388 51.2998L27.8503 63.6334L28.5788 64L29.3072 63.6334L52.3698 51.2998L53.2188 50.8721V0H3.09486V17.6753H3.08984ZM4.66218 49.9554V1.59389H51.6363V49.9504L28.5737 62.2839L4.66218 49.9504V49.9554Z" fill="#DCDEDC"/>
<path d="M28.1514 2.39338C28.3975 2.3832 28.6386 2.40357 28.8797 2.45449L28.1514 3.86506C27.0462 3.79886 26.1018 4.64927 26.0314 5.76957C25.9662 6.88988 26.805 7.84723 27.9102 7.91853H28.1514C28.6386 7.91853 29.1058 7.7403 29.4826 7.42966L30.2712 8.77912C29.6483 9.22215 28.9099 9.4564 28.1514 9.4564C26.2274 9.54296 24.6048 8.03056 24.5194 6.0802C24.434 4.12985 25.926 2.48504 27.85 2.39847H28.1514V2.39338ZM30.6329 5.39784L31.5422 6.93062L30.6329 8.40229L29.784 6.93062H28.0307L28.94 5.39784H30.6329ZM29.1812 4.84786C29.1812 4.60853 29.2414 4.37428 29.362 4.17059C29.5127 3.97709 29.6986 3.80904 29.9046 3.68174L30.0251 3.62063C30.2662 3.4984 30.3265 3.4373 30.3265 3.31508C30.3265 3.19287 30.1456 3.07065 30.0251 3.07065C29.784 3.07065 29.568 3.21324 29.4826 3.4373L29.1812 3.13176C29.2616 2.99427 29.367 2.87206 29.4826 2.76512C29.6483 2.66836 29.8392 2.62254 30.0251 2.6429C30.221 2.6429 30.417 2.70401 30.5677 2.82622C30.7083 2.95353 30.7937 3.12667 30.8087 3.31508C30.8037 3.64099 30.5776 3.92107 30.2662 3.99236L30.0853 4.11458C29.9045 4.23679 29.784 4.2979 29.7237 4.48122H30.8138V4.90897L29.1812 4.84786ZM28.1514 12.5168L33.9032 9.20178V0H22.3392V9.14577L28.1514 12.522V12.5168ZM54.3636 34.2406H1.93904L0 38.5385L1.93904 42.8364H54.3636L56.2424 38.5385L54.3636 34.2406Z" fill="#FF492C"/>
<path d="M15.0739 31.4807C15.0188 31.4807 14.9735 31.4348 14.9735 31.3788V25.5736C14.9735 25.5175 15.0188 25.4718 15.0739 25.4718H16.0687C16.1238 25.4718 16.1691 25.5175 16.1691 25.5736V30.4011C16.1691 30.4011 16.1791 30.4418 16.1993 30.4418C16.1993 30.4418 16.2042 30.4418 16.2093 30.4418H18.9822C18.9822 30.4418 19.0324 30.4469 19.0476 30.4673C19.0676 30.4876 19.0776 30.5131 19.0776 30.5386V31.3737C19.0776 31.3991 19.0676 31.4298 19.0476 31.445C19.0324 31.4654 19.0073 31.4755 18.9822 31.4755H15.0739V31.4807ZM23.6038 28.8174C23.639 29.0567 23.649 29.3062 23.6339 29.5456C23.6339 29.6016 23.5987 29.6475 23.5435 29.6525C23.5385 29.6525 23.5284 29.6525 23.5234 29.6525H20.9011C20.871 29.6525 20.861 29.6678 20.871 29.6932C20.8861 29.8104 20.9163 29.9275 20.9615 30.0345C21.1373 30.3706 21.4939 30.559 21.8657 30.5131C22.2072 30.5182 22.5288 30.3501 22.7196 30.065C22.7347 30.0345 22.7649 30.0192 22.8 30.0141C22.8151 30.0141 22.8352 30.0243 22.8553 30.0497L23.4681 30.6557C23.4681 30.6557 23.5084 30.7066 23.5084 30.7372C23.5033 30.7626 23.4932 30.783 23.4782 30.8033C23.2822 31.0427 23.0361 31.226 22.7599 31.3482C22.4534 31.4755 22.1219 31.5418 21.7904 31.5366C21.3533 31.552 20.9263 31.4348 20.5546 31.2057C20.218 30.9816 19.9668 30.6506 19.8362 30.2687C19.7006 29.9122 19.6402 29.5303 19.6554 29.1433C19.6554 28.8581 19.6955 28.5781 19.7809 28.3081C19.8964 27.9161 20.1376 27.5748 20.4641 27.3407C21.2377 26.811 22.2675 26.8671 22.9808 27.4781C23.3325 27.8345 23.5536 28.3081 23.6038 28.8123V28.8174ZM21.6245 28.0383C21.3031 28.0128 21.0066 28.2267 20.9213 28.5424C20.9011 28.6137 20.8811 28.7104 20.861 28.8174C20.861 28.8378 20.871 28.8581 20.8912 28.8581C20.8912 28.8581 20.8961 28.8581 20.9011 28.8581H22.373C22.4032 28.8581 22.4132 28.8428 22.4032 28.8174C22.373 28.6494 22.363 28.5678 22.363 28.5781C22.3228 28.4202 22.2274 28.2776 22.0968 28.1808C21.9611 28.0841 21.7953 28.0331 21.6245 28.0383ZM26.0703 26.9944C26.4069 26.9892 26.7435 27.0555 27.0499 27.193C27.3211 27.305 27.5522 27.4832 27.728 27.7225C27.8888 27.9364 27.9742 28.2012 27.9692 28.4711V31.3788C27.9692 31.4348 27.924 31.4807 27.8687 31.4807H26.874C26.8188 31.4807 26.7735 31.4348 26.7735 31.3788V31.0987C26.7735 31.0987 26.7686 31.0682 26.7535 31.063C26.7435 31.063 26.7334 31.063 26.7233 31.0835C26.442 31.4196 26.015 31.5927 25.578 31.557C25.1962 31.5723 24.8195 31.4603 24.508 31.2311C24.2267 30.9918 24.076 30.6353 24.1011 30.2687C24.081 29.8715 24.2518 29.4896 24.5633 29.2451C24.9451 28.9753 25.4022 28.848 25.8643 28.8785H26.7283C26.7283 28.8785 26.7686 28.8683 26.7686 28.848C26.7686 28.848 26.7686 28.8428 26.7686 28.8378V28.6544C26.7786 28.4864 26.7184 28.3234 26.5977 28.2063C26.4521 28.0943 26.2712 28.0383 26.0904 28.0536C25.9397 28.0536 25.789 28.079 25.6533 28.1452C25.5428 28.1961 25.4625 28.2929 25.4273 28.41C25.4122 28.4762 25.3771 28.5017 25.3168 28.4965L24.2869 28.359C24.2217 28.3488 24.1915 28.3183 24.1966 28.2776C24.2217 28.0383 24.3221 27.8091 24.4829 27.6257C24.6638 27.4221 24.8898 27.2642 25.1409 27.1726C25.4323 27.0605 25.7488 27.0046 26.0602 27.0046L26.0703 26.9944ZM25.8995 30.6455C26.1205 30.6506 26.3365 30.5844 26.5173 30.4469C26.6781 30.3297 26.7735 30.1413 26.7735 29.9377V29.6321C26.7735 29.6321 26.7635 29.5914 26.7435 29.5914C26.7435 29.5914 26.7384 29.5914 26.7334 29.5914H26.1205C25.9146 29.5812 25.7036 29.6321 25.5278 29.7391C25.3871 29.8257 25.3068 29.9835 25.3117 30.1515C25.3068 30.2942 25.367 30.4317 25.4775 30.5182C25.6031 30.6099 25.7538 30.6557 25.9095 30.6455H25.8995ZM31.5107 25.5685C31.5107 25.5125 31.5559 25.4666 31.6112 25.4666H32.5957C32.651 25.4666 32.6962 25.5125 32.6962 25.5685V31.3737C32.6962 31.4298 32.651 31.4755 32.5957 31.4755H31.6112C31.5559 31.4755 31.5107 31.4298 31.5107 31.3737V31.0937C31.5107 31.0937 31.5056 31.0682 31.4906 31.063C31.4755 31.063 31.4605 31.063 31.4554 31.0733C31.2294 31.3839 30.8626 31.5621 30.4809 31.5468C30.1141 31.557 29.7575 31.44 29.4661 31.2159C29.1748 30.9816 28.9587 30.6608 28.8483 30.2942C28.7477 29.9581 28.6975 29.6066 28.7025 29.2502C28.6975 28.8887 28.7478 28.5322 28.8583 28.191C28.9739 27.8447 29.1848 27.5393 29.4711 27.3202C29.7726 27.0962 30.1392 26.9791 30.511 26.9944C30.8777 26.9739 31.2243 27.1369 31.4554 27.4221C31.4655 27.4373 31.4805 27.4425 31.4906 27.4425C31.5006 27.4425 31.5107 27.4272 31.5107 27.4068V25.5736V25.5685ZM31.3298 30.1413C31.5609 29.5711 31.5559 28.9345 31.3198 28.3692C31.2043 28.1604 30.9882 28.0331 30.7521 28.0383C30.506 28.0281 30.2749 28.1554 30.1443 28.3692C29.9886 28.6494 29.9183 28.9651 29.9333 29.2859C29.9233 29.5812 29.9835 29.8766 30.1141 30.1465C30.2348 30.3808 30.4758 30.5233 30.7371 30.5131C30.9882 30.5131 31.2193 30.3706 31.3298 30.1465V30.1413ZM37.4635 28.8174C37.4986 29.0567 37.5087 29.3062 37.4936 29.5456C37.4936 29.6016 37.4584 29.6475 37.4032 29.6525C37.3981 29.6525 37.3881 29.6525 37.3831 29.6525H34.7608C34.7307 29.6525 34.7207 29.6678 34.7307 29.6932C34.7458 29.8104 34.776 29.9275 34.8211 30.0345C34.9969 30.3706 35.3536 30.559 35.7254 30.5131C36.0669 30.5182 36.3885 30.3501 36.5793 30.065C36.5944 30.0345 36.6246 30.0192 36.6597 30.0141C36.6748 30.0141 36.6949 30.0243 36.715 30.0497L37.3278 30.6557C37.3278 30.6557 37.368 30.7066 37.368 30.7372C37.363 30.7626 37.3529 30.783 37.3379 30.8033C37.1419 31.0427 36.8958 31.226 36.6195 31.3482C36.3131 31.4755 35.9816 31.5418 35.6499 31.5366C35.2129 31.552 34.7859 31.4348 34.4143 31.2057C34.0777 30.9816 33.8265 30.6506 33.6959 30.2687C33.5602 29.9122 33.4999 29.5303 33.5151 29.1433C33.5151 28.8581 33.5552 28.5781 33.6406 28.3081C33.7561 27.9161 33.9973 27.5748 34.3238 27.3407C35.0974 26.811 36.1272 26.8671 36.8405 27.4781C37.1921 27.8345 37.4132 28.3081 37.4635 28.8123V28.8174ZM35.4842 28.0383C35.1627 28.0128 34.8663 28.2267 34.7809 28.5424C34.7608 28.6137 34.7408 28.7104 34.7207 28.8174C34.7207 28.8378 34.7307 28.8581 34.7508 28.8581C34.7508 28.8581 34.7558 28.8581 34.7608 28.8581H36.2327C36.2629 28.8581 36.2729 28.8428 36.2629 28.8174C36.2327 28.6494 36.2226 28.5678 36.2226 28.5781C36.1825 28.4202 36.087 28.2776 35.9564 28.1808C35.8208 28.0841 35.655 28.0331 35.4842 28.0383ZM40.4021 27.0096C40.573 26.9994 40.7387 27.0401 40.8844 27.1267C40.9296 27.1521 40.9497 27.2032 40.9396 27.2541L40.7588 28.2368C40.7588 28.3081 40.7186 28.3285 40.6433 28.2979C40.5479 28.2674 40.4473 28.2522 40.3469 28.2572C40.2866 28.2572 40.2213 28.2572 40.1611 28.2674C39.9651 28.2827 39.7842 28.3642 39.6386 28.4965C39.4929 28.6392 39.4176 28.8326 39.4276 29.0364V31.3788C39.4276 31.4043 39.4176 31.4298 39.4025 31.4501C39.3824 31.4705 39.3573 31.4807 39.3322 31.4807H38.3376C38.2823 31.4807 38.2371 31.4348 38.2371 31.3788V27.1675C38.2371 27.1114 38.2823 27.0656 38.3376 27.0656H39.3322C39.3573 27.0656 39.3874 27.0758 39.4025 27.0962C39.4176 27.1166 39.4276 27.142 39.4276 27.1675V27.4934C39.4276 27.4934 39.4326 27.5239 39.4478 27.5291C39.4628 27.5341 39.4678 27.5291 39.4728 27.5239C39.6738 27.198 40.0254 27.0046 40.4072 27.0096H40.4021ZM11.226 16.9473C11.2511 16.9065 11.2964 16.876 11.3466 16.881H12.3412C12.3965 16.881 12.4417 16.9269 12.4417 16.9828V22.7881C12.4417 22.8441 12.3965 22.8899 12.3412 22.8899H11.3466C11.2913 22.8899 11.2462 22.8441 11.2462 22.7881V18.9994C11.2462 18.9994 11.2411 18.9637 11.226 18.9637C11.211 18.9637 11.2059 18.974 11.1959 18.9892L10.2917 20.4202C10.2666 20.4609 10.2263 20.4864 10.1761 20.4864H9.67378C9.62857 20.4864 9.58336 20.4609 9.55824 20.4202L8.65402 18.9892C8.65402 18.9892 8.63393 18.9689 8.62388 18.9689C8.61384 18.9689 8.60881 18.9842 8.60379 19.0046V22.783C8.60379 22.839 8.55857 22.8848 8.50332 22.8848H7.50868C7.45342 22.8848 7.4082 22.839 7.4082 22.783V16.9778C7.4082 16.9217 7.45342 16.876 7.50868 16.876H8.50332C8.55355 16.876 8.59877 16.9014 8.62388 16.9421L9.89479 18.9434C9.90992 18.9791 9.92495 18.9791 9.94502 18.9434L11.221 16.9421L11.226 16.9473ZM15.3252 22.9612C14.8881 22.9714 14.4611 22.8441 14.1044 22.5844C13.7628 22.3297 13.5217 21.9682 13.4062 21.5557C13.3259 21.2705 13.2907 20.9753 13.2907 20.6799C13.2907 20.3692 13.3259 20.0638 13.4062 19.7633C13.5217 19.361 13.7679 19.0096 14.1095 18.7703C14.4712 18.5208 14.8981 18.3935 15.3301 18.4087C15.7521 18.3985 16.1691 18.5208 16.5157 18.7651C16.8472 19.0096 17.0934 19.361 17.214 19.7582C17.3043 20.0484 17.3496 20.354 17.3496 20.6595C17.3496 20.9498 17.3144 21.2451 17.234 21.5252C17.1285 21.9479 16.8875 22.3196 16.5458 22.5793C16.1942 22.839 15.7672 22.9714 15.3301 22.9612H15.3252ZM15.3252 21.9224C15.496 21.9224 15.6667 21.8664 15.7973 21.7493C15.933 21.622 16.0284 21.459 16.0736 21.2757C16.1189 21.0771 16.144 20.8785 16.139 20.6748C16.139 20.466 16.1189 20.2624 16.0736 20.0586C16.0234 19.8804 15.9229 19.7277 15.7873 19.6054C15.6517 19.4984 15.4809 19.4425 15.3101 19.4475C15.1393 19.4425 14.9685 19.4984 14.8329 19.6054C14.7023 19.7277 14.6068 19.8855 14.5616 20.0586C14.5064 20.2572 14.4812 20.466 14.4912 20.6748C14.4862 20.8785 14.5063 21.0771 14.5516 21.2757C14.5968 21.459 14.6972 21.622 14.8379 21.7493C14.9735 21.8664 15.1493 21.9275 15.3301 21.9224H15.3252ZM22.9507 18.4036C23.3375 18.3833 23.7093 18.531 23.9805 18.811C24.2468 19.1267 24.3824 19.5341 24.3573 19.9466V22.7881C24.3573 22.8441 24.312 22.8899 24.2569 22.8899H23.2622C23.237 22.8899 23.2069 22.8798 23.1919 22.8594C23.1768 22.839 23.1667 22.8135 23.1667 22.7881V20.2113C23.1768 20.0077 23.1115 19.8091 22.9859 19.6513C22.8654 19.5137 22.6945 19.4425 22.5136 19.4475C22.3328 19.4425 22.157 19.5137 22.0314 19.6513C21.9008 19.804 21.8355 20.0026 21.8455 20.2012V22.783C21.8455 22.839 21.8003 22.8848 21.7451 22.8848H20.7656C20.7103 22.8848 20.665 22.839 20.665 22.783V20.2063C20.6751 20.0026 20.6098 19.8091 20.4792 19.6563C20.3586 19.5189 20.1828 19.4425 20.0019 19.4475C19.8362 19.4425 19.6754 19.4984 19.5499 19.6054C19.4243 19.7225 19.3489 19.8855 19.3338 20.0586V22.783C19.3338 22.839 19.2886 22.8848 19.2334 22.8848H18.2387C18.2136 22.8848 18.1885 22.8746 18.1735 22.8543C18.1533 22.8339 18.1433 22.8085 18.1433 22.783V18.5717C18.1433 18.5462 18.1533 18.5156 18.1735 18.5004C18.1885 18.4801 18.2136 18.4699 18.2387 18.4699H19.2334C19.2886 18.4699 19.3338 18.5156 19.3338 18.5717V18.9078C19.3338 18.9078 19.3389 18.9332 19.354 18.9383C19.364 18.9485 19.3741 18.9383 19.384 18.9281C19.6252 18.5717 20.0371 18.3731 20.4641 18.3985C20.7253 18.3935 20.9815 18.4545 21.2076 18.5819C21.4186 18.699 21.5844 18.8772 21.6899 19.0962C21.7049 19.1267 21.725 19.1267 21.7501 19.0962C21.8607 18.8721 22.0365 18.6888 22.2525 18.5665C22.4735 18.4495 22.7247 18.3935 22.9709 18.3935L22.9507 18.4036ZM29.0241 20.2267C29.0592 20.466 29.0743 20.7104 29.0592 20.9549C29.0592 21.0109 29.0241 21.0567 28.9688 21.0618C28.9638 21.0618 28.9537 21.0618 28.9488 21.0618H26.3265C26.2963 21.0618 26.2863 21.0771 26.2963 21.1025C26.3114 21.2196 26.3415 21.3368 26.3868 21.4437C26.5576 21.7798 26.9142 21.9682 27.281 21.9224C27.6225 21.9275 27.944 21.7595 28.1399 21.4743C28.1551 21.4437 28.1802 21.4284 28.2102 21.4234C28.2353 21.4234 28.2555 21.4386 28.2705 21.459L28.8834 22.065C28.8834 22.065 28.9236 22.1159 28.9236 22.1465C28.9136 22.1719 28.9035 22.1923 28.8884 22.2127C28.6975 22.452 28.4464 22.6404 28.1701 22.7576C27.8637 22.8848 27.5372 22.951 27.2056 22.946C26.7686 22.9612 26.3415 22.8441 25.9698 22.6149C25.6333 22.3909 25.3821 22.0599 25.2414 21.678C25.1108 21.3164 25.0506 20.9396 25.0656 20.5526C25.0656 20.2674 25.1057 19.9873 25.1912 19.7175C25.3068 19.3253 25.5478 18.9842 25.8743 18.7499C26.2109 18.5055 26.6179 18.3781 27.0297 18.3883C27.5271 18.3629 28.0194 18.5411 28.3861 18.8874C28.7428 19.2439 28.9638 19.7175 29.009 20.2216L29.0241 20.2267ZM27.0499 19.4475C26.7283 19.4221 26.432 19.6359 26.3466 19.9517C26.3164 20.0434 26.2963 20.135 26.2863 20.2267C26.2863 20.247 26.2963 20.2674 26.3164 20.2674C26.3164 20.2674 26.3215 20.2674 26.3265 20.2674H27.7934C27.8285 20.2674 27.8436 20.2522 27.8285 20.2267C27.7983 20.0586 27.7883 19.9772 27.7883 19.9873C27.7431 19.8295 27.6527 19.6869 27.522 19.5902C27.3814 19.4934 27.2156 19.4425 27.0499 19.4475ZM32.0683 18.4036C32.4752 18.3883 32.872 18.5411 33.1633 18.8263C33.4497 19.1318 33.5954 19.5443 33.5753 19.967V22.783C33.5753 22.839 33.5301 22.8848 33.4748 22.8848H32.4903C32.435 22.8848 32.3898 22.839 32.3898 22.783V20.2165C32.3998 20.0128 32.3295 19.8142 32.1938 19.6563C31.9226 19.3762 31.4805 19.3712 31.1992 19.6411C31.1992 19.6411 31.1891 19.6513 31.1841 19.6563C31.0536 19.8091 30.9832 20.0128 30.9882 20.2165V22.783C30.9882 22.839 30.943 22.8848 30.8878 22.8848H29.9031C29.848 22.8848 29.8027 22.839 29.8027 22.783V18.5717C29.8027 18.5156 29.848 18.4699 29.9031 18.4699H30.8878C30.943 18.4699 30.9882 18.5156 30.9882 18.5717V18.8721C30.9882 18.8721 30.9933 18.9026 31.0083 18.9078C31.0184 18.9078 31.0285 18.9078 31.0334 18.8976C31.2746 18.5615 31.6614 18.3781 32.0683 18.3985V18.4036ZM36.936 19.3407C36.936 19.3966 36.8908 19.4425 36.8355 19.4425H36.0167C36.0167 19.4425 35.9765 19.4527 35.9765 19.473C35.9765 19.473 35.9765 19.4781 35.9765 19.4832V21.3012C35.9664 21.4539 36.0067 21.6016 36.092 21.7238C36.1875 21.8206 36.3231 21.8715 36.4638 21.8613H36.7401C36.7953 21.8613 36.8405 21.9072 36.8405 21.9631V22.7779C36.8405 22.8339 36.8053 22.8848 36.7502 22.8899C36.7502 22.8899 36.7451 22.8899 36.7401 22.8899C36.504 22.9001 36.3382 22.9103 36.2327 22.9103C35.871 22.9358 35.5043 22.8543 35.1878 22.676C34.9266 22.4622 34.796 22.1261 34.8311 21.7849V19.4832C34.8311 19.4832 34.8211 19.4425 34.8011 19.4425C34.8011 19.4425 34.796 19.4425 34.791 19.4425H34.3088C34.2535 19.4425 34.2083 19.3966 34.2083 19.3407V18.5717C34.2083 18.5156 34.2535 18.4699 34.3088 18.4699H34.791C34.791 18.4699 34.8311 18.4597 34.8311 18.4392C34.8311 18.4392 34.8311 18.4342 34.8311 18.429V17.4107C34.8311 17.3546 34.8764 17.3088 34.9316 17.3088H35.881C35.9061 17.3088 35.9313 17.3189 35.9464 17.3393C35.9664 17.3597 35.9765 17.3852 35.9765 17.4107V18.429C35.9765 18.429 35.9865 18.4699 36.0067 18.4699C36.0067 18.4699 36.0116 18.4699 36.0167 18.4699H36.8355C36.8908 18.4699 36.936 18.5156 36.936 18.5717V19.3407ZM40.2012 18.5717C40.2012 18.5462 40.2113 18.5208 40.2263 18.5004C40.2464 18.4801 40.2715 18.4699 40.2966 18.4699H41.2913C41.3465 18.4699 41.3918 18.5156 41.3918 18.5717V22.783C41.3918 22.839 41.3465 22.8848 41.2913 22.8848H40.2966C40.2715 22.8848 40.2414 22.8746 40.2263 22.8543C40.2113 22.8339 40.2012 22.8085 40.2012 22.783V22.4928C40.2012 22.4928 40.1962 22.4622 40.1811 22.4622C40.166 22.4622 40.156 22.4673 40.1459 22.4826C39.8948 22.8033 39.5029 22.9816 39.1011 22.951C38.7092 22.9664 38.3275 22.8237 38.0411 22.5538C37.7498 22.2636 37.5991 21.8613 37.6242 21.4488V18.5767C37.6242 18.5208 37.6694 18.4749 37.7247 18.4749H38.7042C38.7595 18.4749 38.8047 18.5208 38.8047 18.5767V21.1484C38.7947 21.3521 38.8599 21.5507 38.9855 21.7086C39.1112 21.8562 39.297 21.9326 39.4879 21.9224C39.6637 21.9275 39.8345 21.8664 39.9651 21.7441C40.0907 21.622 40.1711 21.459 40.1962 21.2859V18.5819L40.2012 18.5717ZM47.1085 18.3985C47.4953 18.3781 47.867 18.5258 48.1383 18.806C48.4045 19.1216 48.5401 19.5291 48.515 19.9415V22.783C48.515 22.839 48.4698 22.8848 48.4145 22.8848H47.4199C47.3948 22.8848 47.3647 22.8746 47.3496 22.8543C47.3345 22.8339 47.3244 22.8085 47.3244 22.783V20.2063C47.3345 20.0026 47.2692 19.804 47.1437 19.6461C47.023 19.5087 46.8523 19.4373 46.6714 19.4425C46.4906 19.4373 46.3148 19.5087 46.1892 19.6461C46.0586 19.7989 45.9932 19.9975 46.0033 20.1961V22.7779C46.0033 22.8339 45.9581 22.8798 45.9028 22.8798H44.9232C44.868 22.8798 44.8228 22.8339 44.8228 22.7779V20.2012C44.8329 19.9975 44.7675 19.804 44.6369 19.6513C44.5164 19.5137 44.3406 19.4373 44.1597 19.4425C43.9939 19.4373 43.8332 19.4934 43.7075 19.6003C43.582 19.7175 43.5066 19.8804 43.4916 20.0536V22.7779C43.4916 22.8339 43.4464 22.8798 43.3911 22.8798H42.3965C42.3713 22.8798 42.3412 22.8696 42.3261 22.8492C42.3111 22.8289 42.301 22.8033 42.301 22.7779V18.5665C42.301 18.5411 42.3111 18.5156 42.3261 18.4953C42.3462 18.4749 42.3713 18.4647 42.3965 18.4647H43.3911C43.4464 18.4647 43.4916 18.5106 43.4916 18.5665V18.9026C43.4916 18.9026 43.4966 18.9281 43.5117 18.9332C43.5217 18.9434 43.5317 18.9332 43.5418 18.923C43.7829 18.5665 44.1948 18.368 44.6219 18.3935C44.8831 18.3883 45.1393 18.4495 45.3653 18.5767C45.5763 18.6939 45.7421 18.8721 45.8476 19.0911C45.8626 19.1216 45.8828 19.1216 45.9079 19.0911C46.0183 18.8671 46.1941 18.6837 46.4102 18.5615C46.6312 18.4444 46.8824 18.3883 47.1285 18.3883L47.1085 18.3985Z" fill="#252530"/>
<path d="M18.6472 40.9318C18.6071 40.9318 18.5719 40.9114 18.5618 40.8707L17.4617 36.7153V36.6899C17.4567 36.6542 17.4768 36.6339 17.522 36.6339H18.1148C18.1549 36.6339 18.1901 36.6542 18.2001 36.695L18.8884 39.4957C18.8884 39.4957 18.8984 39.5161 18.9085 39.5161C18.9185 39.5161 18.9235 39.5111 18.9286 39.4957L19.5866 36.695C19.5967 36.6594 19.6268 36.6339 19.667 36.6339H20.2498C20.2899 36.6339 20.3251 36.6542 20.3351 36.695L21.0384 39.5009C21.0384 39.5009 21.0484 39.5212 21.0585 39.5212C21.0686 39.5212 21.0735 39.5161 21.0786 39.5009L21.7568 36.695C21.7668 36.6542 21.802 36.6288 21.8422 36.6339H22.4048C22.46 36.6339 22.4851 36.6594 22.4701 36.7153L21.4252 40.8707C21.4151 40.9114 21.38 40.9369 21.3398 40.9318H20.7772C20.737 40.9318 20.7018 40.9114 20.6918 40.8707L19.9835 37.9426C19.9835 37.9426 19.9734 37.9222 19.9634 37.9172C19.9533 37.9172 19.9483 37.9274 19.9433 37.9426L19.2651 40.8707C19.2551 40.9064 19.2249 40.9318 19.1847 40.9318H18.6523H18.6472ZM23.1332 40.9318C23.1332 40.9318 23.093 40.9216 23.0779 40.9064C23.0679 40.891 23.0578 40.8758 23.0578 40.8555V36.7051C23.0578 36.7051 23.0629 36.6696 23.0779 36.6542C23.093 36.639 23.1131 36.6288 23.1332 36.6288H23.6907C23.731 36.6339 23.7561 36.6644 23.7611 36.7001V40.8503C23.7561 40.891 23.7259 40.9165 23.6907 40.9216H23.1332V40.9318ZM27.1117 36.7103C27.1117 36.7103 27.1168 36.6746 27.1318 36.6594C27.1469 36.6441 27.167 36.6339 27.1871 36.6339H27.7447C27.7849 36.639 27.81 36.6696 27.8151 36.7051V40.8555C27.81 40.8962 27.7799 40.9216 27.7447 40.9267H27.2071C27.172 40.9267 27.1368 40.9114 27.1218 40.8758L25.3787 37.9783C25.3787 37.9783 25.3636 37.9579 25.3536 37.9579C25.3435 37.9579 25.3435 37.9681 25.3435 37.9884L25.3536 40.8503C25.3485 40.891 25.3184 40.9165 25.2832 40.9216H24.7256C24.7256 40.9216 24.6855 40.9114 24.6703 40.8962C24.6603 40.8809 24.6503 40.8656 24.6503 40.8452V36.695C24.6503 36.695 24.6553 36.6594 24.6703 36.6441C24.6855 36.6288 24.7055 36.6187 24.7256 36.6187H25.2631C25.2983 36.6187 25.3334 36.6339 25.3485 36.6696L27.0866 39.567C27.0866 39.567 27.1016 39.5823 27.1117 39.5772C27.1218 39.5772 27.1218 39.567 27.1218 39.5518V36.6899H27.1168L27.1117 36.7103ZM31.4822 36.639C31.5223 36.6441 31.5474 36.6746 31.5525 36.7103V37.1839C31.5474 37.2246 31.5173 37.25 31.4822 37.2552H30.3669C30.3669 37.2552 30.3367 37.2653 30.3367 37.2755C30.3367 37.2755 30.3367 37.2806 30.3367 37.2857V40.8555C30.3367 40.8555 30.3318 40.891 30.3167 40.9064C30.3016 40.9216 30.2816 40.9318 30.2614 40.9318H29.7038C29.6637 40.9267 29.6386 40.8962 29.6335 40.8605V37.2908C29.6335 37.2908 29.6234 37.2602 29.6135 37.2602C29.6135 37.2602 29.6084 37.2602 29.6034 37.2602H28.5334C28.5334 37.2602 28.4932 37.25 28.4781 37.2348C28.468 37.2195 28.4581 37.2043 28.4581 37.1839V36.7103C28.4581 36.7103 28.463 36.6746 28.4781 36.6594C28.4932 36.6441 28.5132 36.6339 28.5334 36.6339H31.4822V36.639ZM35.0739 37.1787C35.0689 37.2195 35.0387 37.245 35.0036 37.25H32.9389C32.9389 37.25 32.9088 37.2602 32.9088 37.2704C32.9088 37.2704 32.9088 37.2755 32.9088 37.2806V38.4264C32.9088 38.4264 32.9189 38.4569 32.9288 38.4569C32.9288 38.4569 32.9339 38.4569 32.9389 38.4569H34.3254C34.3606 38.4519 34.3907 38.4773 34.3957 38.513C34.3957 38.518 34.3957 38.5231 34.3957 38.5333V39.0018C34.4007 39.0375 34.3756 39.068 34.3404 39.0731C34.3355 39.0731 34.3304 39.0731 34.3204 39.0731H32.9339C32.9339 39.0731 32.9037 39.0833 32.9037 39.0935C32.9037 39.0935 32.9037 39.0986 32.9037 39.1037V40.2901C32.9037 40.2901 32.9138 40.3208 32.9239 40.3208C32.9239 40.3208 32.9288 40.3208 32.9339 40.3208H34.9986C35.0387 40.3258 35.0638 40.3563 35.0689 40.392V40.8605C35.0638 40.9012 35.0337 40.9267 34.9986 40.9318H32.2759C32.2759 40.9318 32.2356 40.9216 32.2206 40.9064C32.2105 40.891 32.2005 40.8758 32.2005 40.8555V36.7051C32.2005 36.7051 32.2055 36.6696 32.2206 36.6542C32.2356 36.639 32.2558 36.6288 32.2759 36.6288H34.9986C35.0387 36.6339 35.0638 36.6644 35.0689 36.7001V37.1686L35.0739 37.1787ZM38.1683 40.9369C38.1332 40.9369 38.098 40.9165 38.083 40.8809L37.2842 39.1139C37.2842 39.1139 37.2641 39.0884 37.249 39.0884H36.5206C36.5206 39.0884 36.4905 39.0986 36.4905 39.1087C36.4905 39.1087 36.4905 39.1139 36.4905 39.1189V40.8605C36.4855 40.9012 36.4553 40.9267 36.4201 40.9318H35.8626C35.8626 40.9318 35.8224 40.9216 35.8073 40.9064C35.7973 40.891 35.7872 40.8758 35.7872 40.8555V36.7051C35.7872 36.7051 35.7923 36.6696 35.8073 36.6542C35.8224 36.639 35.8425 36.6288 35.8626 36.6288H37.5253C37.7513 36.6288 37.9775 36.6746 38.1784 36.7816C38.3643 36.8834 38.515 37.0362 38.6205 37.2246C38.7259 37.4283 38.7812 37.6523 38.7761 37.8815C38.7862 38.1412 38.7058 38.3908 38.5602 38.5996C38.4145 38.8032 38.2035 38.9509 37.9674 39.0171C37.9573 39.0171 37.9524 39.0171 37.9473 39.0273C37.9473 39.0375 37.9473 39.0425 37.9473 39.0527L38.8013 40.8401C38.8013 40.8401 38.8113 40.8656 38.8113 40.8758C38.8113 40.9064 38.7912 40.9267 38.7461 40.9267H38.1633L38.1683 40.9369ZM36.5206 37.2552C36.5206 37.2552 36.4905 37.2653 36.4905 37.2755C36.4905 37.2755 36.4905 37.2806 36.4905 37.2857V38.5078C36.4905 38.5078 36.5005 38.5384 36.5106 38.5384C36.5106 38.5384 36.5157 38.5384 36.5206 38.5384H37.4299C37.6057 38.5435 37.7766 38.4824 37.9021 38.3602C38.0227 38.238 38.0879 38.0699 38.0779 37.9019C38.083 37.7288 38.0227 37.5607 37.9021 37.4334C37.7766 37.3112 37.6057 37.25 37.4299 37.2552H36.5206Z" fill="white"/>
<path d="M20.3589 52.0125C20.3589 52.0125 20.3438 52.038 20.3488 52.0482C20.3589 52.0584 20.3689 52.0685 20.384 52.0685H22.7651C22.7902 52.0685 22.8204 52.0787 22.8354 52.0991C22.8606 52.1143 22.8706 52.1448 22.8706 52.1704V53.036C22.8706 53.0665 22.8556 53.0921 22.8354 53.1074C22.8154 53.1277 22.7902 53.1379 22.7651 53.1379H18.8167C18.7866 53.1379 18.7614 53.1277 18.7363 53.1074C18.7163 53.0869 18.7062 53.0615 18.7062 53.036V52.2162C18.7062 52.1652 18.7262 52.1143 18.7614 52.0787C19.0478 51.7986 19.3392 51.488 19.6406 51.1519C19.942 50.8158 20.1278 50.607 20.2032 50.5256C20.364 50.327 20.5297 50.1385 20.7006 49.9603C21.0974 49.6089 21.3736 49.1455 21.4992 48.6261C21.5042 48.4326 21.4238 48.2441 21.2832 48.1118C20.9467 47.8521 20.4795 47.8521 20.1429 48.1118C19.9922 48.2493 19.9118 48.4427 19.9168 48.6465V48.8654C19.9168 48.9215 19.8717 48.9672 19.8164 48.9672H18.7815C18.7564 48.9672 18.7262 48.9571 18.7112 48.9367C18.6861 48.9215 18.676 48.8909 18.676 48.8654V48.4479C18.6911 48.1373 18.7966 47.8419 18.9775 47.5924C19.1633 47.3428 19.4145 47.1494 19.6958 47.0271C20.0173 46.8947 20.364 46.8234 20.7105 46.8285C21.0873 46.8183 21.459 46.8999 21.7956 47.0679C22.0869 47.2053 22.3281 47.4244 22.5039 47.6993C22.6697 47.9641 22.7601 48.2747 22.7601 48.5904C22.7601 48.8553 22.6898 49.1201 22.5742 49.3594C22.4235 49.6649 22.2427 49.9501 22.0217 50.2047C21.8408 50.4338 21.6449 50.6631 21.4339 50.8922C21.2229 51.1213 20.9115 51.4472 20.4946 51.8699L20.3589 52.0073V52.0125ZM25.724 53.2397C25.1663 53.2703 24.6138 53.0767 24.1968 52.6949C23.81 52.3027 23.604 51.7578 23.6342 51.2028V48.8502C23.6091 48.3002 23.81 47.7706 24.1968 47.3835C24.6138 47.0017 25.1614 46.8081 25.724 46.8387C26.2866 46.8081 26.8341 47.0067 27.2561 47.3835C27.6429 47.7706 27.8489 48.3002 27.8187 48.8502V51.2028C27.8489 51.7578 27.6429 52.3027 27.2561 52.6949C26.8341 53.0717 26.2866 53.2703 25.724 53.2397ZM25.724 52.1652C25.955 52.1754 26.1811 52.0889 26.3468 51.9208C26.5076 51.7426 26.593 51.5083 26.5829 51.2639V48.8145C26.593 48.5752 26.5076 48.3409 26.3468 48.1627C25.9952 47.8368 25.4577 47.8368 25.1061 48.1627C24.9453 48.3359 24.8599 48.5752 24.87 48.8145V51.2639C24.8599 51.5083 24.9453 51.7426 25.1061 51.9208C25.2669 52.0889 25.4929 52.1754 25.724 52.1652ZM30.2751 52.0125C30.2751 52.0125 30.2601 52.038 30.2702 52.0482C30.2702 52.0584 30.2852 52.0685 30.3053 52.0685H32.6864C32.7417 52.0685 32.7869 52.1143 32.7869 52.1704V53.036C32.7869 53.092 32.7417 53.1379 32.6864 53.1379H28.7329C28.6778 53.1379 28.6325 53.092 28.6325 53.036V52.2162C28.6325 52.1652 28.6476 52.1194 28.6827 52.0787C28.9741 51.7986 29.2655 51.488 29.5618 51.1519C29.8583 50.8158 30.0441 50.607 30.1245 50.5256C30.2903 50.327 30.456 50.1385 30.6269 49.9603C31.0237 49.6089 31.2999 49.1455 31.4256 48.6261C31.4305 48.4326 31.3502 48.2441 31.2095 48.1118C31.0488 47.9743 30.8428 47.9081 30.6368 47.9132C30.4309 47.903 30.2249 47.9743 30.0692 48.1118C29.9235 48.2493 29.8431 48.4427 29.8532 48.6465V48.8654C29.8532 48.8909 29.8431 48.9215 29.8231 48.9367C29.803 48.9571 29.7728 48.9672 29.7427 48.9672H28.7078C28.6526 48.9672 28.6074 48.9215 28.6074 48.8654V48.4479C28.6174 48.1423 28.7229 47.8419 28.9038 47.5924C29.0897 47.3428 29.3408 47.1494 29.6321 47.0271C29.9537 46.8947 30.2953 46.8234 30.6419 46.8285C31.0186 46.8183 31.3904 46.8999 31.727 47.0679C32.0183 47.2053 32.2645 47.4244 32.4403 47.6993C32.606 47.9641 32.6914 48.2747 32.6864 48.5904C32.6864 48.8553 32.6211 49.1201 32.5055 49.3594C32.3549 49.6649 32.164 49.945 31.948 50.2047C31.7671 50.4338 31.5712 50.6631 31.3602 50.8922C31.1492 51.1213 30.8378 51.4472 30.4209 51.8699L30.2852 52.0073L30.2751 52.0125ZM37.2125 50.1691C37.3331 50.4645 37.3934 50.7852 37.3884 51.106C37.3884 51.4116 37.3381 51.7121 37.2326 51.9972C37.102 52.3638 36.8509 52.6795 36.5244 52.8883C36.1726 53.1124 35.7658 53.2244 35.3489 53.2142C34.937 53.2244 34.5301 53.1073 34.1784 52.8781C33.8468 52.6541 33.5957 52.3333 33.45 51.9564C33.3646 51.7171 33.3194 51.4625 33.3093 51.2079C33.3043 51.157 33.3344 51.1112 33.3847 51.106C33.3948 51.106 33.3998 51.106 33.4098 51.106H34.4497C34.4999 51.101 34.5451 51.1315 34.5502 51.1824C34.5502 51.1926 34.5502 51.1977 34.5502 51.2079C34.5652 51.3556 34.5953 51.5032 34.6456 51.6458C34.741 51.9463 35.0173 52.1448 35.3287 52.1347C35.6252 52.155 35.8964 51.9768 36.0069 51.6968C36.0924 51.5032 36.1325 51.2894 36.1275 51.0755C36.1375 50.8413 36.0924 50.6019 35.9919 50.388C35.8763 50.1182 35.61 49.9552 35.3187 49.9705C35.2484 49.9705 35.178 49.9909 35.1128 50.0264C35.0425 50.0672 34.957 50.1232 34.8566 50.1945C34.8365 50.2098 34.8163 50.22 34.7912 50.22C34.7561 50.22 34.726 50.1996 34.7108 50.1691L34.1885 49.4256C34.1885 49.4256 34.1684 49.3849 34.1684 49.3645C34.1684 49.3339 34.1784 49.2983 34.2035 49.2779L35.595 48.0405C35.595 48.0405 35.61 48.0201 35.6151 48.0048C35.6151 47.9946 35.6 47.9845 35.5849 47.9845H33.5203C33.4902 47.9845 33.4651 47.9743 33.4399 47.9539C33.4199 47.9336 33.4098 47.908 33.4098 47.8826V47.0169C33.4098 46.9915 33.4199 46.9609 33.4399 46.9456C33.46 46.9253 33.4902 46.9151 33.5203 46.9151H37.1773C37.2075 46.9151 37.2326 46.9253 37.2577 46.9456C37.2778 46.966 37.2879 46.9915 37.2879 47.0169V47.9998C37.2879 48.0507 37.2628 48.1016 37.2276 48.1373L36.0772 49.2067C36.0772 49.2067 36.0622 49.227 36.0672 49.2372C36.0722 49.2474 36.0823 49.2524 36.1023 49.2576C36.5997 49.3492 37.0116 49.7005 37.1925 50.1793L37.2125 50.1691Z" fill="#252530"/>
</g>
<defs>
<clipPath id="clip0_0_399">
<rect width="56.2424" height="64" fill="white"/>
</clipPath>
</defs>
</svg>
