<svg width="90" height="40" viewBox="0 0 90 40" fill="none" xmlns="http://www.w3.org/2000/svg">
<g clip-path="url(#clip0_0_432)">
<mask id="mask0_0_432" style="mask-type:luminance" maskUnits="userSpaceOnUse" x="0" y="0" width="90" height="40">
<path d="M89.2121 0H0.121216V40H89.2121V0Z" fill="white"/>
</mask>
<g mask="url(#mask0_0_432)">
<path d="M82.0925 0H7.24085C3.30879 0 0.121216 3.23049 0.121216 7.2155V32.7845C0.121216 36.7695 3.30879 40 7.24085 40H82.0925C86.0246 40 89.2121 36.7695 89.2121 32.7845V7.2155C89.2121 3.23049 86.0246 0 82.0925 0Z" fill="#044D80"/>
<path d="M8.70697 10.9728H19.1567V7.00708L8.70697 10.9728Z" fill="#FF9D28"/>
<path d="M19.1564 7.00717V21.0235L24.0978 5.13818L19.1564 7.00717Z" fill="#68C5ED"/>
<path d="M19.1565 10.9731H15.2111L19.1565 21.0121V10.9731Z" fill="white"/>
<path d="M8.70697 10.9729L16.2249 13.5479L15.2068 10.9729H8.70697Z" fill="#E54747"/>
<path d="M32.6565 17.3213C32.5695 17.4028 32.4745 17.475 32.3729 17.5367C32.2085 17.6416 32.0342 17.7301 31.8529 17.8006C31.5966 17.9022 31.3313 17.9787 31.0607 18.0289C30.7098 18.0948 30.3534 18.1267 29.9966 18.1243C29.3091 18.1361 28.6261 18.01 27.9869 17.7533C27.4447 17.5214 26.9661 17.1597 26.5921 16.699C26.2163 16.2312 25.9423 15.688 25.7883 15.1052C25.6071 14.4464 25.5195 13.765 25.528 13.081C25.522 12.3916 25.6178 11.705 25.8119 11.0442C25.9808 10.453 26.2662 9.90286 26.6511 9.42686C27.0271 8.96549 27.5051 8.60008 28.0461 8.36055C28.6699 8.09371 29.3419 7.96332 30.0188 7.97762C30.356 7.97648 30.6926 8.00862 31.0237 8.07367C31.2936 8.13218 31.5586 8.21224 31.816 8.31301C32.0096 8.39151 32.1956 8.48744 32.372 8.59989C32.4888 8.67501 32.5994 8.7594 32.7029 8.85212C32.7929 8.93015 32.8689 9.02315 32.9277 9.12732C32.9877 9.23332 33.0204 9.35286 33.0226 9.47504C33.016 9.68522 32.9414 9.8875 32.81 10.0503C32.6684 10.2439 32.5101 10.4242 32.3371 10.5895C32.2191 10.4695 32.0891 10.35 31.947 10.2305C31.7967 10.1064 31.6342 9.99841 31.4621 9.90804C31.2706 9.80886 31.0683 9.7325 30.8595 9.68031C30.6126 9.61559 30.3585 9.58359 30.1035 9.58495C29.6741 9.56832 29.2486 9.67177 28.8735 9.88404C28.5523 10.0761 28.2809 10.343 28.0818 10.6625C27.876 10.9968 27.7319 11.366 27.656 11.7524C27.5717 12.1664 27.529 12.5881 27.5288 13.0108C27.5285 13.4491 27.571 13.8863 27.656 14.3161C27.7323 14.71 27.885 15.0847 28.1053 15.4183C28.315 15.7385 28.5991 16.0016 28.9327 16.1845C29.3231 16.3885 29.7586 16.4874 30.1976 16.472C30.445 16.4726 30.6916 16.4404 30.9308 16.376C31.1359 16.3131 31.334 16.2288 31.5219 16.1243C31.6787 16.0355 31.8289 15.9353 31.9712 15.8245C32.0985 15.7168 32.2073 15.6212 32.2894 15.549C32.3486 15.6212 32.4078 15.7045 32.4905 15.8006C32.5688 15.8949 32.6399 15.995 32.7029 16.1004C32.7736 16.208 32.8214 16.3158 32.8799 16.4229C32.923 16.5125 32.9473 16.6104 32.9512 16.71C32.9541 16.8219 32.9296 16.9326 32.8799 17.0325C32.8141 17.1353 32.7389 17.2315 32.6553 17.32L32.6565 17.3213ZM40.0333 16.2074C39.99 16.7866 40.1045 17.3666 40.3642 17.8843C40.2088 17.9509 40.0462 17.9991 39.8799 18.0282C39.7238 18.0566 39.5658 18.0723 39.4072 18.0758C39.1324 18.0927 38.8594 18.0215 38.6269 17.872C38.4428 17.7281 38.3202 17.5182 38.2845 17.2854C38.0464 17.5331 37.7609 17.7287 37.4453 17.8604C37.0438 18.0246 36.6129 18.1021 36.1801 18.088C35.9165 18.0876 35.6541 18.0513 35.3999 17.9804C35.1422 17.9096 34.901 17.7877 34.6904 17.6214C34.4716 17.4431 34.2942 17.2183 34.1706 16.963C34.0299 16.6469 33.9611 16.3028 33.9693 15.9561C33.9506 15.5238 34.0755 15.0976 34.3239 14.7457C34.5602 14.4365 34.8636 14.1862 35.2104 14.0148C35.5727 13.836 35.9583 13.7114 36.3557 13.6441C36.7314 13.5803 37.1103 13.5361 37.4905 13.5119C37.6043 13.5018 37.7185 13.4977 37.8328 13.4996H38.1402V13.2363C38.1545 13.0884 38.1352 12.9393 38.0839 12.8001C38.0327 12.661 37.9507 12.5357 37.8442 12.4336C37.5592 12.2531 37.2249 12.1692 36.8897 12.1942C36.5136 12.189 36.1401 12.258 35.79 12.3974C35.4648 12.5314 35.1488 12.6878 34.8443 12.865C34.7093 12.7002 34.6019 12.5142 34.5261 12.3142C34.4609 12.1749 34.4209 12.0249 34.4079 11.8711C34.414 11.7924 34.4373 11.7158 34.4761 11.6472C34.515 11.5788 34.5683 11.52 34.6324 11.475C34.8184 11.3278 35.0258 11.2107 35.2472 11.128C35.5385 11.0163 35.8393 10.9322 36.1459 10.876C36.497 10.8126 36.853 10.7807 37.2098 10.7806C37.6522 10.769 38.0941 10.8213 38.5219 10.9365C38.8474 11.0286 39.147 11.1969 39.3969 11.4274C39.6269 11.66 39.7938 11.9487 39.8812 12.2658C39.981 12.6486 40.0287 13.0434 40.0226 13.4394L40.0345 16.2074H40.0333ZM38.1879 14.518H37.9867C37.9195 14.516 37.8522 14.5202 37.7857 14.5302C37.5496 14.5541 37.3129 14.5779 37.0768 14.614C36.8579 14.6456 36.6461 14.7144 36.45 14.8178C36.275 14.9115 36.1218 15.0423 36.0007 15.201C35.8778 15.375 35.8154 15.5854 35.8238 15.7993C35.8145 16.0508 35.8942 16.2974 36.0484 16.4947C36.1488 16.599 36.2709 16.679 36.406 16.7286C36.5411 16.7783 36.6857 16.7963 36.8287 16.7815C37.0044 16.782 37.1792 16.758 37.3485 16.71C37.5029 16.6678 37.6501 16.6023 37.7857 16.5164C37.896 16.4479 37.9958 16.3633 38.0817 16.265C38.1423 16.1947 38.1795 16.1065 38.1879 16.0135V14.516V14.518ZM43.6135 11.6429C43.8215 11.4161 44.0651 11.2259 44.3345 11.0798C44.7119 10.8753 45.1363 10.7759 45.564 10.792C45.9113 10.7902 46.2559 10.8514 46.5821 10.9721C46.9062 11.0993 47.1974 11.2999 47.433 11.5588C47.7038 11.8713 47.9053 12.2392 48.0242 12.6373C48.189 13.1719 48.2649 13.7305 48.2489 14.2903C48.2687 14.9276 48.1808 15.5636 47.989 16.171C47.8529 16.6014 47.6274 16.9971 47.3274 17.3317C47.0754 17.6047 46.7636 17.814 46.4173 17.9426C46.0947 18.06 45.7547 18.1205 45.4119 18.1218C45.1684 18.1245 44.9256 18.0924 44.6909 18.0263C44.5096 17.9758 44.3347 17.9035 44.1703 17.811C44.0508 17.7495 43.9396 17.6728 43.8393 17.5827C43.7875 17.5353 43.7401 17.4831 43.6975 17.427V21.0214H41.7356V11.0061C41.7933 10.9905 41.8529 10.9828 41.9126 10.9825C41.9718 10.9702 42.0398 10.9701 42.1136 10.9586C42.1963 10.9586 42.279 10.9462 42.3853 10.9462C42.6653 10.9365 42.9439 10.9897 43.2011 11.1021C43.3061 11.154 43.398 11.2298 43.4698 11.3232C43.5415 11.4167 43.5912 11.5257 43.6149 11.6416L43.6135 11.6429ZM46.2144 14.3385C46.2158 14.0653 46.1919 13.7928 46.143 13.5241C46.1004 13.2928 46.0206 13.0701 45.9069 12.865C45.7968 12.6838 45.6416 12.535 45.4569 12.4336C45.2458 12.3221 45.0096 12.2684 44.7717 12.278C44.4742 12.25 44.1769 12.3309 43.933 12.5057C43.8609 12.5708 43.8027 12.65 43.7619 12.7388C43.7213 12.8275 43.6989 12.9237 43.6962 13.0215V16.125C43.8185 16.239 43.9581 16.332 44.1099 16.4005C44.3219 16.5095 44.5576 16.563 44.7953 16.5564C45.0106 16.5691 45.2251 16.5211 45.415 16.4175C45.6049 16.3139 45.7627 16.1589 45.8707 15.9697C46.126 15.4665 46.245 14.9035 46.2156 14.3385H46.2144ZM49.7609 16.854C49.6927 16.6564 49.6488 16.4509 49.6303 16.2424C49.6109 16.028 49.6029 15.8127 49.6067 15.5975V8.82568C49.6768 8.81183 49.748 8.80378 49.8194 8.80174C49.89 8.78949 49.9613 8.78941 50.0319 8.77781C50.1026 8.77781 50.1851 8.76584 50.2564 8.76584C50.4115 8.76393 50.5664 8.77977 50.7179 8.8134C50.8689 8.83528 51.0115 8.89701 51.1314 8.99258C51.2631 9.08328 51.3692 9.20741 51.4389 9.3525C51.5203 9.53704 51.5607 9.7375 51.5573 9.9395V10.9815H53.5784V12.4553H51.5686V15.5698C51.5686 16.2528 51.8403 16.5881 52.3844 16.5881C52.5126 16.5865 52.64 16.5661 52.7626 16.528C52.8805 16.4803 52.9866 16.4324 53.0808 16.3838C53.1696 16.3378 53.2528 16.2813 53.3289 16.216C53.4001 16.156 53.4472 16.1081 53.4822 16.0869C53.6054 16.2623 53.7161 16.4463 53.8138 16.6376C53.8845 16.775 53.9249 16.9265 53.9321 17.0813C53.9304 17.2204 53.8754 17.3535 53.7788 17.4523C53.6571 17.5884 53.5131 17.702 53.3531 17.7883C53.1465 17.9066 52.923 17.9918 52.6907 18.0405C52.4114 18.1043 52.1259 18.1362 51.8398 18.136C51.3511 18.162 50.8659 18.041 50.4449 17.7883C50.1364 17.5462 49.8992 17.2231 49.7594 16.854H49.7609ZM58.5425 16.6603C58.7576 16.6649 58.9721 16.6367 59.1789 16.5765C59.3498 16.5267 59.516 16.4618 59.6759 16.3829C59.8097 16.3117 59.9363 16.2277 60.0539 16.1316C60.1604 16.0357 60.255 15.9518 60.3378 15.88C60.4749 16.0571 60.5976 16.2455 60.7044 16.443C60.8139 16.6116 60.8795 16.8055 60.8951 17.0067C60.8869 17.1262 60.8504 17.242 60.7886 17.3442C60.7268 17.4464 60.6416 17.532 60.5401 17.5937C60.2775 17.7781 59.9857 17.9157 59.6773 18.0005C59.2538 18.1176 58.8162 18.174 58.3772 18.168C57.9259 18.168 57.4765 18.1076 57.0408 17.9882C56.6117 17.873 56.2122 17.6648 55.8705 17.3777C55.5078 17.0574 55.2246 16.6551 55.0433 16.2037C54.8134 15.6132 54.7051 14.9814 54.7251 14.347C54.7124 13.8058 54.8089 13.2675 55.0088 12.7655C55.1782 12.3494 55.432 11.974 55.7535 11.6633C56.0605 11.3766 56.4224 11.157 56.8168 11.0184C57.2062 10.8845 57.6147 10.816 58.0259 10.8152C58.4952 10.8029 58.9619 10.8886 59.3971 11.0669C59.7499 11.2181 60.0621 11.4523 60.3079 11.75C60.5437 12.0375 60.7171 12.3721 60.817 12.7321C60.9226 13.1097 60.9744 13.5005 60.9709 13.8929V14.0966C60.9726 14.1809 60.9686 14.2651 60.9589 14.3489C60.9589 14.4327 60.9468 14.5166 60.9468 14.6011C60.9472 14.6663 60.9394 14.7312 60.9233 14.7944H56.6799C56.6976 15.2845 56.8718 15.7555 57.1763 16.1366C57.351 16.3232 57.5652 16.4677 57.8027 16.5589C58.0401 16.6501 58.2947 16.6858 58.5477 16.6634L58.5425 16.6603ZM59.2049 13.7014C59.2209 13.304 59.1267 12.9098 58.9332 12.5637C58.8267 12.4104 58.6819 12.2886 58.5136 12.2106C58.3454 12.1327 58.1597 12.1013 57.9756 12.12C57.7969 12.1129 57.619 12.1471 57.4553 12.2198C57.2915 12.2924 57.146 12.4014 57.0299 12.539C56.7753 12.8689 56.6492 13.2822 56.6755 13.7001L59.2049 13.7014ZM64.3824 11.6769C64.4519 11.577 64.5269 11.4812 64.6071 11.39C64.7097 11.2757 64.8297 11.1784 64.9622 11.1021C65.1089 11.0159 65.263 10.9436 65.4229 10.8861C65.5981 10.8268 65.7824 10.7988 65.9671 10.803C66.0855 10.803 66.2031 10.8153 66.3336 10.827C66.4556 10.8482 66.5746 10.8844 66.688 10.9346C66.7955 10.9817 66.8892 11.0559 66.9603 11.15C67.032 11.2465 67.0695 11.3647 67.0666 11.4854C67.0609 11.7366 67.0086 11.9843 66.9127 12.216C66.8225 12.4594 66.7162 12.6965 66.5945 12.9255C66.4449 12.8035 66.2823 12.699 66.1096 12.614C65.9259 12.5383 65.7289 12.5016 65.5306 12.5063C65.2585 12.4961 64.9925 12.5905 64.7859 12.7702C64.6912 12.846 64.6145 12.9422 64.5614 13.052C64.5083 13.1619 64.4803 13.2825 64.4792 13.4048V18.1243H62.5167V10.9967C62.5747 10.9814 62.6343 10.9733 62.6943 10.9727C62.7535 10.9605 62.8215 10.9604 62.8953 10.9481C62.966 10.9481 63.0608 10.9365 63.167 10.9365C63.4453 10.9294 63.7211 10.9909 63.9708 11.1157C64.0744 11.1756 64.1648 11.2568 64.2359 11.3538C64.3071 11.4508 64.3577 11.5616 64.3845 11.6794L64.3824 11.6769ZM69.95 11.6769C70.0197 11.5771 70.0947 11.4814 70.1747 11.39C70.2772 11.2756 70.3971 11.1783 70.5298 11.1021C70.6768 11.016 70.8311 10.9437 70.991 10.8861C71.1661 10.8268 71.35 10.7987 71.5345 10.803C71.6529 10.803 71.7714 10.8153 71.9012 10.827C72.0232 10.8482 72.1421 10.8844 72.2556 10.9346C72.3629 10.9817 72.4564 11.0559 72.5273 11.15C72.5989 11.2465 72.6364 11.3647 72.6336 11.4854C72.628 11.7366 72.576 11.9843 72.4802 12.216C72.3902 12.4595 72.2839 12.6966 72.162 12.9255C72.0128 12.8034 71.8503 12.699 71.6778 12.614C71.494 12.5383 71.297 12.5017 71.0988 12.5063C70.8267 12.4961 70.5607 12.5905 70.3541 12.7702C70.2592 12.846 70.1825 12.9422 70.1293 13.052C70.076 13.1619 70.0479 13.2824 70.0468 13.4048V18.1243H68.0849V10.9967C68.1427 10.9814 68.2021 10.9733 68.2619 10.9727C68.321 10.9605 68.389 10.9604 68.4629 10.9481C68.5335 10.9481 68.6283 10.9365 68.7346 10.9365C69.0129 10.9294 69.2887 10.9909 69.5383 11.1157C69.6419 11.1755 69.7323 11.2568 69.8035 11.3538C69.8747 11.4508 69.9253 11.5615 69.952 11.6794L69.95 11.6769ZM79.3001 16.2056C79.2568 16.7847 79.3713 17.3648 79.631 17.8824C79.4754 17.949 79.3128 17.9973 79.1462 18.0263C78.99 18.0547 78.8319 18.0705 78.6733 18.0739C78.3988 18.0908 78.126 18.0195 77.8939 17.8701C77.7095 17.7263 77.5867 17.5164 77.5508 17.2835C77.3128 17.5314 77.027 17.727 76.7114 17.8585C76.3099 18.0228 75.8791 18.1003 75.4464 18.0862C75.1828 18.0857 74.9203 18.0495 74.6661 17.9785C74.4087 17.9076 74.1677 17.7857 73.9572 17.6195C73.7387 17.441 73.5611 17.2163 73.4372 16.961C73.2969 16.6449 73.2282 16.3009 73.2362 15.9542C73.2179 15.5219 73.343 15.0955 73.5914 14.7434C73.8277 14.4342 74.1309 14.1843 74.4777 14.0129C74.84 13.8342 75.2258 13.7091 75.6232 13.6419C75.9989 13.578 76.3776 13.5342 76.7578 13.51C76.8719 13.4999 76.9864 13.4958 77.1009 13.4977H77.4075V13.2344C77.4219 13.0866 77.403 12.9374 77.3518 12.7982C77.3006 12.659 77.2187 12.5335 77.1123 12.4314C76.8273 12.251 76.4929 12.1674 76.1578 12.1923C75.7817 12.187 75.4082 12.256 75.0581 12.3955C74.7329 12.5296 74.4169 12.6859 74.1125 12.8631C73.9773 12.6984 73.8699 12.5123 73.7943 12.3123C73.7289 12.173 73.6888 12.023 73.6759 11.8692C73.682 11.7905 73.7054 11.7139 73.7442 11.6454C73.7831 11.5769 73.8365 11.5181 73.9006 11.4731C74.0864 11.3259 74.2939 11.2087 74.5153 11.126C74.8067 11.0145 75.1075 10.93 75.4139 10.8739C75.7649 10.8104 76.1207 10.7785 76.4772 10.7784C76.9198 10.7667 77.3616 10.8194 77.7894 10.9346C78.1149 11.0267 78.4146 11.195 78.6644 11.4256C78.8946 11.658 79.0614 11.9467 79.1487 12.2639C79.249 12.6466 79.2968 13.0415 79.2905 13.4375L79.3027 16.2056H79.3001ZM77.4546 14.516H77.2536C77.1865 14.5142 77.1195 14.518 77.0531 14.528C76.8164 14.5519 76.5803 14.576 76.3436 14.6121C76.125 14.6439 75.9133 14.7128 75.7173 14.8159C75.5423 14.9096 75.3892 15.04 75.2682 15.1988C75.145 15.3728 75.0825 15.5835 75.0906 15.7974C75.0814 16.0489 75.161 16.2955 75.3153 16.4928C75.4156 16.597 75.5379 16.677 75.6729 16.7268C75.808 16.7764 75.9524 16.7944 76.0953 16.7796C76.271 16.7802 76.4461 16.7562 76.6153 16.7081C76.7699 16.666 76.9174 16.6005 77.0531 16.5145C77.1633 16.446 77.2628 16.3614 77.3483 16.2632C77.4091 16.1929 77.4464 16.1047 77.4546 16.0116V14.5139V14.516Z" fill="white"/>
<path d="M14.4094 26.8597L15.418 28.9299C15.446 28.9876 15.4876 29.0375 15.5388 29.0753C15.5902 29.1132 15.6499 29.1379 15.7128 29.1471L17.9674 29.4794C18.0398 29.4901 18.1077 29.5211 18.1636 29.5689C18.2195 29.6166 18.2612 29.6794 18.2838 29.7499C18.3064 29.8204 18.309 29.8959 18.2915 29.9678C18.2738 30.0398 18.2367 30.1053 18.1842 30.1571L16.5532 31.7694C16.5078 31.8143 16.4738 31.8701 16.4541 31.9312C16.4345 31.9925 16.4298 32.0574 16.4406 32.1209L16.8256 34.397C16.8379 34.4701 16.8298 34.5451 16.8023 34.6137C16.7747 34.6823 16.7288 34.7418 16.6696 34.7853C16.6104 34.8289 16.5403 34.855 16.4673 34.8602C16.3944 34.8656 16.3216 34.8501 16.2568 34.8155L14.24 33.7404C14.1838 33.7105 14.1213 33.6948 14.0578 33.6948C13.9943 33.6948 13.9317 33.7105 13.8754 33.7404L11.8588 34.8155C11.7941 34.8501 11.7211 34.8656 11.6481 34.8602C11.5752 34.855 11.5052 34.8289 11.446 34.7853C11.3868 34.7418 11.3409 34.6823 11.3134 34.6137C11.2858 34.5451 11.2776 34.4701 11.2898 34.397L11.6748 32.1209C11.6857 32.0574 11.6811 31.9925 11.6615 31.9312C11.6418 31.8701 11.6078 31.8143 11.5622 31.7694L9.93121 30.1571C9.87884 30.1053 9.84175 30.0398 9.82421 29.9678C9.80666 29.8959 9.80921 29.8204 9.83184 29.7499C9.85439 29.6794 9.89602 29.6166 9.95193 29.5689C10.0078 29.5211 10.0758 29.4901 10.1483 29.4794L12.4029 29.1471C12.4658 29.1379 12.5254 29.1132 12.5768 29.0753C12.6281 29.0375 12.6696 28.9876 12.6977 28.9299L13.7056 26.8597C13.7379 26.793 13.7879 26.7368 13.8501 26.6975C13.9123 26.6582 13.9842 26.6373 14.0575 26.6373C14.1308 26.6373 14.2026 26.6582 14.2648 26.6975C14.3269 26.7368 14.3771 26.793 14.4094 26.8597Z" fill="#FF9D28"/>
<path d="M29.9894 26.8594L30.9974 28.9296C31.0256 28.9873 31.0671 29.0372 31.1186 29.0751C31.17 29.113 31.2297 29.1375 31.2926 29.1469L33.5472 29.4792C33.6197 29.4897 33.6879 29.5205 33.7439 29.5682C33.7999 29.6161 33.8415 29.6788 33.8641 29.7493C33.8868 29.8199 33.8894 29.8955 33.8719 29.9675C33.8543 30.0396 33.8173 30.1051 33.7649 30.1568L32.1332 31.7691C32.0877 31.8141 32.0536 31.8694 32.034 31.9307C32.0143 31.992 32.0098 32.0571 32.0206 32.1206L32.4056 34.3967C32.418 34.4698 32.4099 34.5448 32.3823 34.6134C32.3547 34.6821 32.3087 34.7415 32.2494 34.7851C32.1902 34.8286 32.1203 34.8546 32.0473 34.86C31.9744 34.8652 31.9014 34.8498 31.8367 34.8152L29.8201 33.7401C29.7639 33.7102 29.7013 33.6945 29.6378 33.6945C29.5743 33.6945 29.5117 33.7102 29.4554 33.7401L27.4388 34.8152C27.3741 34.8498 27.3011 34.8652 27.2281 34.86C27.1552 34.8546 27.0852 34.8286 27.0261 34.7851C26.9669 34.7415 26.9208 34.6821 26.8932 34.6134C26.8656 34.5448 26.8576 34.4698 26.8699 34.3967L27.2549 32.1206C27.2657 32.0571 27.2611 31.9922 27.2415 31.931C27.2219 31.8698 27.1878 31.8141 27.1422 31.7691L25.5112 30.1568C25.4588 30.1051 25.4218 30.0395 25.4042 29.9675C25.3866 29.8956 25.3892 29.8202 25.4118 29.7496C25.4344 29.6791 25.476 29.6163 25.5319 29.5686C25.5879 29.5208 25.6559 29.4898 25.7283 29.4792L27.9829 29.1469C28.0458 29.1375 28.1055 29.113 28.1569 29.0751C28.2083 29.0372 28.2501 28.9873 28.2782 28.9296L29.2862 26.8594C29.3186 26.7929 29.3686 26.7367 29.4307 26.6975C29.4929 26.6584 29.5647 26.6377 29.6378 26.6377C29.711 26.6377 29.7826 26.6584 29.8448 26.6975C29.9069 26.7367 29.9571 26.7929 29.9894 26.8594Z" fill="#FF9D28"/>
<path d="M45.5705 26.8596L46.5785 28.9298C46.6067 28.9875 46.6484 29.0374 46.6999 29.0753C46.7513 29.1131 46.811 29.1378 46.8739 29.147L49.1285 29.4793C49.2009 29.4899 49.269 29.5209 49.3249 29.5688C49.3808 29.6166 49.4224 29.6793 49.445 29.7498C49.4675 29.8203 49.4702 29.8958 49.4526 29.9678C49.4351 30.0397 49.398 30.1053 49.3455 30.1569L47.714 31.7693C47.6684 31.8143 47.6344 31.8699 47.6148 31.9312C47.5952 31.9924 47.5906 32.0573 47.6013 32.1208L47.9863 34.3969C47.9986 34.4699 47.9906 34.5449 47.963 34.6136C47.9354 34.6822 47.8893 34.7417 47.8302 34.7852C47.771 34.8288 47.701 34.8548 47.6281 34.8601C47.5551 34.8655 47.4821 34.8499 47.4173 34.8154L45.4008 33.7403C45.3445 33.7104 45.2819 33.6947 45.2183 33.6947C45.1548 33.6947 45.0923 33.7104 45.0362 33.7403L43.0195 34.8154C42.9548 34.8499 42.8818 34.8655 42.8089 34.8601C42.7359 34.8548 42.6658 34.8288 42.6065 34.7852C42.5473 34.7417 42.5014 34.6822 42.4739 34.6136C42.4463 34.5449 42.4383 34.4699 42.4506 34.3969L42.8355 32.1208C42.8464 32.0573 42.8418 31.9921 42.8223 31.9308C42.8026 31.8696 42.7685 31.8142 42.7229 31.7693L41.0913 30.1569C41.0389 30.1052 41.0016 30.0398 40.9842 29.9678C40.9666 29.8957 40.9694 29.82 40.9921 29.7495C41.0147 29.6789 41.0563 29.6162 41.1123 29.5684C41.1683 29.5207 41.2363 29.4898 41.3088 29.4793L43.5636 29.147C43.6265 29.1378 43.6862 29.1131 43.7376 29.0753C43.7891 29.0374 43.8306 28.9875 43.8588 28.9298L44.8668 26.8596C44.8991 26.7928 44.9493 26.7367 45.0114 26.6974C45.0736 26.6581 45.1453 26.6372 45.2187 26.6372C45.292 26.6372 45.3639 26.6581 45.4261 26.6974C45.4883 26.7367 45.5383 26.7928 45.5705 26.8596Z" fill="#FF9D28"/>
<path d="M61.1514 26.8594L62.1594 28.9296C62.1875 28.9873 62.2289 29.0372 62.2803 29.075C62.3317 29.1129 62.3913 29.1376 62.4541 29.1468L64.7088 29.4791C64.7811 29.4897 64.849 29.5207 64.9049 29.5686C64.9609 29.6163 65.0027 29.6791 65.0252 29.7496C65.0478 29.8201 65.0504 29.8956 65.0328 29.9675C65.0153 30.0395 64.978 30.105 64.9257 30.1567L63.294 31.7691C63.2486 31.814 63.2146 31.8697 63.1949 31.9309C63.1753 31.9922 63.1707 32.0571 63.1814 32.1206L63.5664 34.3966C63.5787 34.4697 63.5707 34.5447 63.5431 34.6134C63.5155 34.682 63.4696 34.7415 63.4104 34.785C63.3512 34.8286 63.281 34.8547 63.2081 34.8599C63.1351 34.8653 63.0623 34.8497 62.9976 34.8152L60.9808 33.7401C60.9246 33.7102 60.8621 33.6945 60.7986 33.6945C60.7351 33.6945 60.6725 33.7102 60.6162 33.7401L58.5996 34.8152C58.5348 34.8497 58.4619 34.8653 58.3889 34.8599C58.3159 34.8547 58.246 34.8286 58.1869 34.785C58.1276 34.7415 58.0818 34.682 58.0541 34.6134C58.0266 34.5447 58.0183 34.4697 58.0307 34.3966L58.4157 32.1206C58.4264 32.0571 58.4218 31.9922 58.4021 31.9309C58.3825 31.8697 58.3485 31.814 58.303 31.7691L56.6714 30.1567C56.6189 30.105 56.5819 30.0395 56.5644 29.9675C56.5468 29.8956 56.5494 29.8201 56.5719 29.7496C56.5946 29.6791 56.6361 29.6163 56.692 29.5686C56.748 29.5207 56.816 29.4897 56.8885 29.4791L59.143 29.1468C59.2058 29.1376 59.2656 29.1129 59.3169 29.075C59.3682 29.0372 59.4098 28.9873 59.4378 28.9296L60.4464 26.8594C60.4786 26.7923 60.5286 26.7357 60.5908 26.6962C60.6532 26.6567 60.7254 26.6357 60.7989 26.6357C60.8725 26.6357 60.9445 26.6567 61.0068 26.6962C61.0691 26.7357 61.1193 26.7923 61.1514 26.8594Z" fill="#FF9D28"/>
<path d="M76.7321 26.8593L77.7401 28.9294C77.7684 28.9872 77.8099 29.0371 77.8613 29.075C77.9128 29.1128 77.9724 29.1374 78.0353 29.1467L80.2893 29.479C80.3618 29.4895 80.43 29.5204 80.486 29.5681C80.542 29.6159 80.5836 29.6786 80.6062 29.7492C80.6289 29.8197 80.6318 29.8954 80.6142 29.9674C80.5967 30.0394 80.5594 30.1049 80.5069 30.1566L78.8754 31.769C78.8298 31.8139 78.7957 31.8693 78.7761 31.9305C78.7565 31.9918 78.7519 32.057 78.7628 32.1204L79.1477 34.3966C79.16 34.4696 79.152 34.5446 79.1244 34.6133C79.0969 34.6819 79.0509 34.7414 78.9918 34.7849C78.9326 34.8284 78.8624 34.8545 78.7895 34.8598C78.7165 34.8652 78.6435 34.8496 78.5788 34.8151L76.5622 33.74C76.5058 33.71 76.4432 33.6944 76.3796 33.6944C76.316 33.6944 76.2532 33.71 76.1969 33.74L74.1803 34.8151C74.1156 34.8496 74.0426 34.8652 73.9697 34.8598C73.8967 34.8545 73.8267 34.8284 73.7675 34.7849C73.7083 34.7414 73.6623 34.6819 73.6347 34.6133C73.6071 34.5446 73.599 34.4696 73.6114 34.3966L73.9932 32.1204C74.004 32.057 73.9994 31.9921 73.9798 31.9308C73.9601 31.8696 73.9261 31.8139 73.8806 31.769L72.2497 30.1566C72.1972 30.1049 72.16 30.0394 72.1424 29.9674C72.1249 29.8954 72.1276 29.82 72.1502 29.7494C72.1728 29.679 72.2144 29.6163 72.2703 29.5684C72.3262 29.5206 72.3941 29.4896 72.4665 29.479L74.7211 29.1467C74.784 29.1374 74.8439 29.1128 74.8953 29.075C74.9468 29.0371 74.9882 28.9872 75.0165 28.9294L76.0245 26.8593C76.0563 26.7915 76.1065 26.7343 76.1691 26.6943C76.2318 26.6542 76.3042 26.6328 76.3782 26.6328C76.4523 26.6328 76.5249 26.6542 76.5875 26.6943C76.6501 26.7343 76.7003 26.7915 76.7321 26.8593Z" fill="#FF9D28"/>
<path d="M80.5065 30.157C80.5589 30.1052 80.596 30.0397 80.6136 29.9677C80.6311 29.8956 80.6283 29.82 80.6057 29.7495C80.583 29.6789 80.5414 29.6162 80.4854 29.5684C80.4294 29.5206 80.3613 29.4898 80.2888 29.4793L78.0342 29.1476C77.9714 29.1384 77.9117 29.1137 77.8602 29.0759C77.8088 29.038 77.7671 28.9881 77.7389 28.9304L76.7309 26.8602C76.6989 26.7933 76.649 26.7366 76.5868 26.6974C76.5244 26.6581 76.4524 26.6376 76.379 26.6382V33.6953C76.4427 33.6955 76.5052 33.711 76.5616 33.7409L78.5783 34.816C78.643 34.8506 78.716 34.8661 78.789 34.8607C78.8619 34.8555 78.9319 34.8294 78.9911 34.7858C79.0503 34.7423 79.0962 34.6828 79.1238 34.6142C79.1514 34.5456 79.1596 34.4706 79.1472 34.3976L78.7621 32.1214C78.7513 32.0579 78.756 31.993 78.7757 31.9318C78.7952 31.8706 78.8292 31.8148 78.8748 31.7699L80.5065 30.157Z" fill="#D8DAEA"/>
</g>
</g>
<defs>
<clipPath id="clip0_0_432">
<rect width="89.0909" height="40" fill="white" transform="translate(0.121216)"/>
</clipPath>
</defs>
</svg>
